<svg width="36" height="36" viewBox="0 0 36 36" fill="none" xmlns="http://www.w3.org/2000/svg">
<rect x="2" y="2" width="32" height="32" rx="16" fill="#0E5799"/>
<rect x="1" y="1" width="34" height="34" rx="17" stroke="#A2A0A2" stroke-opacity="0.1" stroke-width="2"/>
<mask id="mask0_1657_57244" style="mask-type:alpha" maskUnits="userSpaceOnUse" x="10" y="10" width="16" height="16">
<rect x="10" y="10" width="16" height="16" fill="#D9D9D9"/>
</mask>
<g mask="url(#mask0_1657_57244)">
<path d="M18.0046 24.5546C17.0967 24.5546 16.2453 24.3839 15.4505 24.0424C14.6556 23.7011 13.9601 23.2319 13.364 22.6348C12.768 22.0377 12.2993 21.3423 11.9581 20.5486C11.6169 19.7549 11.4463 18.9032 11.4463 17.9933C11.4463 17.0825 11.617 16.2324 11.9585 15.4431C12.2998 14.6538 12.769 13.961 13.3661 13.3649C13.9632 12.7689 14.6586 12.3003 15.4523 11.9591C16.246 11.6179 17.0977 11.4473 18.0076 11.4473C18.9184 11.4473 19.7685 11.618 20.5578 11.9594C21.3471 12.3008 22.0398 12.77 22.636 13.3671C23.232 13.9642 23.7006 14.6583 24.0418 15.4494C24.383 16.2404 24.5536 17.0894 24.5536 17.9963C24.5536 18.9042 24.3829 19.7555 24.0415 20.5504C23.7001 21.3453 23.2309 22.0408 22.6338 22.6369C22.0367 23.2329 21.3426 23.7015 20.5515 24.0428C19.7605 24.384 18.9115 24.5546 18.0046 24.5546Z" fill="white"/>
</g>
</svg>
