<svg width="133" height="40" viewBox="0 0 133 40" fill="none" xmlns="http://www.w3.org/2000/svg">
<path d="M125.247 29.0679C124.428 29.0679 123.72 28.936 123.123 28.6723C122.526 28.4085 122.068 28.0337 121.748 27.5479C121.429 27.0482 121.27 26.4582 121.27 25.778C121.27 25.1394 121.415 24.5772 121.707 24.0914C121.998 23.5917 122.443 23.1752 123.039 22.8421C123.65 22.5089 124.407 22.2729 125.309 22.1341L128.786 21.5719V23.8623L125.871 24.3829C125.427 24.4662 125.087 24.6119 124.851 24.8202C124.615 25.0145 124.497 25.2991 124.497 25.6739C124.497 26.0209 124.629 26.2916 124.893 26.486C125.156 26.6803 125.483 26.7775 125.871 26.7775C126.385 26.7775 126.836 26.6664 127.225 26.4443C127.613 26.2222 127.912 25.9237 128.12 25.5489C128.342 25.1603 128.453 24.7369 128.453 24.2788V21.322C128.453 20.8917 128.28 20.5308 127.933 20.2393C127.6 19.9478 127.141 19.802 126.558 19.802C126.003 19.802 125.51 19.9547 125.08 20.2601C124.664 20.5655 124.358 20.968 124.164 21.4678L121.665 20.2809C121.887 19.6424 122.241 19.094 122.727 18.636C123.213 18.1779 123.796 17.8239 124.476 17.574C125.156 17.3242 125.899 17.1992 126.704 17.1992C127.662 17.1992 128.509 17.3727 129.244 17.7198C129.98 18.0668 130.549 18.5527 130.952 19.1773C131.368 19.7881 131.577 20.503 131.577 21.322V26.3194H132.826V28.818H128.661V26.9857L129.369 26.8608C129.036 27.3605 128.668 27.7769 128.266 28.1101C127.863 28.4294 127.412 28.6653 126.912 28.818C126.413 28.9846 125.857 29.0679 125.247 29.0679Z" fill="white"/>
<path d="M116.942 28.8168L116.942 10.834H120.066V28.8168H116.942Z" fill="white"/>
<path d="M108.255 29.0679C107.436 29.0679 106.728 28.936 106.132 28.6723C105.535 28.4085 105.077 28.0337 104.757 27.5479C104.438 27.0482 104.278 26.4582 104.278 25.778C104.278 25.1394 104.424 24.5772 104.716 24.0914C105.007 23.5917 105.451 23.1752 106.048 22.8421C106.659 22.5089 107.416 22.2729 108.318 22.1341L111.795 21.5719V23.8623L108.88 24.3829C108.436 24.4662 108.096 24.6119 107.86 24.8202C107.624 25.0145 107.506 25.2991 107.506 25.6739C107.506 26.0209 107.638 26.2916 107.901 26.486C108.165 26.6803 108.491 26.7775 108.88 26.7775C109.394 26.7775 109.845 26.6664 110.233 26.4443C110.622 26.2222 110.921 25.9237 111.129 25.5489C111.351 25.1603 111.462 24.7369 111.462 24.2788V21.322C111.462 20.8917 111.288 20.5308 110.941 20.2393C110.608 19.9478 110.15 19.802 109.567 19.802C109.012 19.802 108.519 19.9547 108.089 20.2601C107.672 20.5655 107.367 20.968 107.173 21.4678L104.674 20.2809C104.896 19.6424 105.25 19.094 105.736 18.636C106.222 18.1779 106.805 17.8239 107.485 17.574C108.165 17.3242 108.908 17.1992 109.713 17.1992C110.671 17.1992 111.518 17.3727 112.253 17.7198C112.989 18.0668 113.558 18.5527 113.961 19.1773C114.377 19.7881 114.585 20.503 114.585 21.322V26.3194H115.835V28.818H111.67V26.9857L112.378 26.8608C112.045 27.3605 111.677 27.7769 111.275 28.1101C110.872 28.4294 110.421 28.6653 109.921 28.818C109.421 28.9846 108.866 29.0679 108.255 29.0679Z" fill="white"/>
<path d="M96.702 29.0667C95.5915 29.0667 94.5989 28.8029 93.7244 28.2754C92.8499 27.7479 92.1558 27.033 91.6422 26.1307C91.1424 25.2284 90.8926 24.229 90.8926 23.1323C90.8926 22.0218 91.1494 21.0223 91.663 20.1339C92.1766 19.2316 92.8707 18.5167 93.7452 17.9892C94.6198 17.4617 95.5984 17.198 96.6812 17.198C97.5141 17.198 98.2498 17.3576 98.8883 17.6769C99.5408 17.9823 100.054 18.4196 100.429 18.9887L99.9503 19.6134V10.834H103.074V28.8168H100.158V26.7346L100.45 27.3801C100.061 27.9353 99.5338 28.3587 98.8675 28.6502C98.2012 28.9279 97.4794 29.0667 96.702 29.0667ZM97.0768 26.2557C97.6459 26.2557 98.1457 26.1238 98.576 25.86C99.0063 25.5963 99.3395 25.2284 99.5755 24.7565C99.8253 24.2845 99.9503 23.7431 99.9503 23.1323C99.9503 22.5215 99.8253 21.9802 99.5755 21.5082C99.3395 21.0362 99.0063 20.6684 98.576 20.4046C98.1457 20.1409 97.6459 20.009 97.0768 20.009C96.5077 20.009 95.994 20.1478 95.5359 20.4254C95.0917 20.6892 94.7447 21.057 94.4948 21.529C94.245 21.9871 94.12 22.5215 94.12 23.1323C94.12 23.7431 94.245 24.2845 94.4948 24.7565C94.7447 25.2284 95.0917 25.5963 95.5359 25.86C95.994 26.1238 96.5077 26.2557 97.0768 26.2557Z" fill="white"/>
<path d="M79.5107 28.818V17.4491H82.4259V19.6979L82.2593 19.1982C82.523 18.518 82.9464 18.0182 83.5294 17.699C84.1263 17.3658 84.8204 17.1992 85.6117 17.1992C86.4723 17.1992 87.2219 17.3797 87.8605 17.7406C88.5129 18.1015 89.0196 18.6082 89.3805 19.2606C89.7414 19.8992 89.9219 20.6488 89.9219 21.5094V28.818H86.7985V22.1757C86.7985 21.7315 86.7083 21.3498 86.5278 21.0305C86.3613 20.7112 86.1183 20.4614 85.7991 20.2809C85.4937 20.1005 85.1328 20.0102 84.7163 20.0102C84.3137 20.0102 83.9528 20.1005 83.6336 20.2809C83.3143 20.4614 83.0644 20.7112 82.884 21.0305C82.7174 21.3498 82.6341 21.7315 82.6341 22.1757V28.818H79.5107Z" fill="white"/>
<path d="M70.8237 29.0679C70.0047 29.0679 69.2968 28.936 68.6999 28.6723C68.103 28.4085 67.6449 28.0337 67.3256 27.5479C67.0063 27.0482 66.8467 26.4582 66.8467 25.778C66.8467 25.1394 66.9924 24.5772 67.2839 24.0914C67.5755 23.5917 68.0197 23.1752 68.6166 22.8421C69.2274 22.5089 69.9839 22.2729 70.8862 22.1341L74.3635 21.5719V23.8623L71.4484 24.3829C71.0042 24.4662 70.6641 24.6119 70.4281 24.8202C70.1921 25.0145 70.0741 25.2991 70.0741 25.6739C70.0741 26.0209 70.206 26.2916 70.4698 26.486C70.7335 26.6803 71.0597 26.7775 71.4484 26.7775C71.962 26.7775 72.4132 26.6664 72.8018 26.4443C73.1905 26.2222 73.489 25.9237 73.6972 25.5489C73.9193 25.1603 74.0304 24.7369 74.0304 24.2788V21.322C74.0304 20.8917 73.8568 20.5308 73.5098 20.2393C73.1767 19.9478 72.7186 19.802 72.1355 19.802C71.5803 19.802 71.0875 19.9547 70.6572 20.2601C70.2407 20.5655 69.9353 20.968 69.741 21.4678L67.2423 20.2809C67.4644 19.6424 67.8184 19.094 68.3042 18.636C68.7901 18.1779 69.3731 17.8239 70.0533 17.574C70.7335 17.3242 71.4762 17.1992 72.2813 17.1992C73.2391 17.1992 74.0859 17.3727 74.8216 17.7198C75.5573 18.0668 76.1265 18.5527 76.529 19.1773C76.9455 19.7881 77.1537 20.503 77.1537 21.322V26.3194H78.403V28.818H74.2386V26.9857L74.9465 26.8608C74.6134 27.3605 74.2455 27.7769 73.843 28.1101C73.4404 28.4294 72.9892 28.6653 72.4895 28.818C71.9898 28.9846 71.4345 29.0679 70.8237 29.0679Z" fill="white"/>
<path d="M49.166 28.8169L49.166 10.834H52.2894L58.0988 18.5382H56.6412L62.284 10.834H65.4074L65.4074 28.8169H62.1799L62.1799 14.3946L63.4709 14.6861L57.4949 22.3903H57.0785L51.3107 14.6861L52.3935 14.3946V28.8169H49.166Z" fill="white"/>
<path d="M93.6829 15.1331V11.5838H92.5869V10.9023H95.5399V11.5838H94.4609V15.1331H93.6829Z" fill="white"/>
<path d="M90.5236 15.201C90.2208 15.201 89.9406 15.1461 89.6832 15.0363C89.4295 14.9265 89.2062 14.7732 89.0131 14.5763C88.8238 14.3794 88.6761 14.1485 88.5701 13.8835C88.4641 13.6185 88.4111 13.3289 88.4111 13.0146C88.4111 12.7004 88.4622 12.4108 88.5645 12.1458C88.6705 11.877 88.8181 11.6461 89.0074 11.453C89.2005 11.2561 89.4257 11.1047 89.6832 10.9987C89.9406 10.8889 90.2208 10.834 90.5236 10.834C90.8265 10.834 91.0972 10.8851 91.3357 10.9873C91.578 11.0895 91.7824 11.2258 91.949 11.3962C92.1156 11.5628 92.2349 11.7464 92.3068 11.947L91.614 12.2707C91.5345 12.0587 91.4001 11.8846 91.2108 11.7483C91.0215 11.6082 90.7924 11.5382 90.5236 11.5382C90.2586 11.5382 90.0239 11.6006 89.8195 11.7256C89.6188 11.8505 89.4617 12.0227 89.3481 12.2423C89.2383 12.4619 89.1834 12.7193 89.1834 13.0146C89.1834 13.3099 89.2383 13.5693 89.3481 13.7926C89.4617 14.0122 89.6188 14.1845 89.8195 14.3094C90.0239 14.4343 90.2586 14.4968 90.5236 14.4968C90.7924 14.4968 91.0215 14.4287 91.2108 14.2924C91.4001 14.1523 91.5345 13.9763 91.614 13.7642L92.3068 14.0879C92.2349 14.2886 92.1156 14.4741 91.949 14.6445C91.7824 14.811 91.578 14.9454 91.3357 15.0477C91.0972 15.1499 90.8265 15.201 90.5236 15.201Z" fill="white"/>
<path d="M85.1592 15.1331V10.9023H87.9702V11.5838H85.9315V12.6685H87.8566V13.3499H85.9315V14.4516H87.9702V15.1331H85.1592Z" fill="white"/>
<path d="M82.7422 15.1331V14.4232H82.9864C83.1681 14.4232 83.312 14.3721 83.418 14.2699C83.5278 14.1639 83.5826 14.0238 83.5826 13.8496V10.9023H84.3606V13.8212C84.3606 14.0825 84.3039 14.3115 84.1903 14.5084C84.0805 14.7052 83.9215 14.8586 83.7133 14.9684C83.5088 15.0782 83.2665 15.1331 82.9864 15.1331H82.7422Z" fill="white"/>
<path d="M80.0284 15.201C79.7179 15.201 79.4283 15.1461 79.1595 15.0363C78.8907 14.9265 78.656 14.7732 78.4554 14.5763C78.2547 14.3794 78.0976 14.1485 77.984 13.8835C77.8742 13.6147 77.8193 13.3251 77.8193 13.0146C77.8193 12.7004 77.8742 12.4108 77.984 12.1458C78.0938 11.8808 78.249 11.6498 78.4497 11.453C78.6503 11.2561 78.8851 11.1047 79.1539 10.9987C79.4227 10.8889 79.7142 10.834 80.0284 10.834C80.3426 10.834 80.6341 10.8889 80.9029 10.9987C81.1717 11.1085 81.4064 11.2618 81.6071 11.4587C81.8077 11.6517 81.963 11.8808 82.0728 12.1458C82.1863 12.4108 82.2431 12.7004 82.2431 13.0146C82.2431 13.3251 82.1863 13.6147 82.0728 13.8835C81.9592 14.1485 81.8021 14.3794 81.6014 14.5763C81.4008 14.7732 81.166 14.9265 80.8972 15.0363C80.6322 15.1461 80.3426 15.201 80.0284 15.201ZM80.0284 14.4968C80.2366 14.4968 80.4278 14.4608 80.6019 14.3889C80.7761 14.3132 80.9275 14.2091 81.0563 14.0766C81.1888 13.9441 81.2891 13.787 81.3572 13.6052C81.4292 13.4235 81.4651 13.2267 81.4651 13.0146C81.4651 12.8026 81.4292 12.6077 81.3572 12.4297C81.2891 12.248 81.1888 12.0909 81.0563 11.9584C80.9275 11.8221 80.7761 11.718 80.6019 11.6461C80.4278 11.5741 80.2366 11.5382 80.0284 11.5382C79.824 11.5382 79.6347 11.5741 79.4605 11.6461C79.2864 11.718 79.133 11.8221 79.0005 11.9584C78.8718 12.0909 78.7715 12.248 78.6996 12.4297C78.6276 12.6077 78.5917 12.8026 78.5917 13.0146C78.5917 13.2267 78.6276 13.4235 78.6996 13.6052C78.7715 13.787 78.8718 13.9441 79.0005 14.0766C79.133 14.2091 79.2864 14.3132 79.4605 14.3889C79.6347 14.4608 79.824 14.4968 80.0284 14.4968Z" fill="white"/>
<path d="M74.1895 15.1331V10.9023H75.7625C76.0502 10.9023 76.3039 10.9553 76.5234 11.0614C76.7468 11.1636 76.921 11.315 77.0459 11.5157C77.1708 11.7125 77.2333 11.9529 77.2333 12.2369C77.2333 12.5284 77.1633 12.7763 77.0232 12.9808C76.8869 13.1852 76.7014 13.3367 76.4667 13.4351L77.4377 15.1331H76.5632L75.524 13.2761L76.0237 13.5714H74.9618V15.1331H74.1895ZM74.9618 12.8899H75.7738C75.9139 12.8899 76.0351 12.8634 76.1373 12.8104C76.2395 12.7536 76.319 12.676 76.3758 12.5776C76.4326 12.4792 76.461 12.3656 76.461 12.2369C76.461 12.1044 76.4326 11.9908 76.3758 11.8961C76.319 11.7977 76.2395 11.722 76.1373 11.669C76.0351 11.6122 75.9139 11.5838 75.7738 11.5838H74.9618V12.8899Z" fill="white"/>
<path d="M70.5068 15.1331V10.9023H72.0855C72.3733 10.9023 72.6269 10.9553 72.8465 11.0614C73.0699 11.1636 73.244 11.315 73.369 11.5157C73.4939 11.7125 73.5564 11.9529 73.5564 12.2369C73.5564 12.517 73.492 12.7574 73.3633 12.9581C73.2383 13.1549 73.0661 13.3064 72.8465 13.4124C72.6269 13.5184 72.3733 13.5714 72.0855 13.5714H71.2792V15.1331H70.5068ZM71.2792 12.8899H72.0969C72.237 12.8899 72.3581 12.8634 72.4603 12.8104C72.5626 12.7536 72.6421 12.676 72.6989 12.5776C72.7556 12.4792 72.784 12.3656 72.784 12.2369C72.784 12.1044 72.7556 11.9908 72.6989 11.8961C72.6421 11.7977 72.5626 11.722 72.4603 11.669C72.3581 11.6122 72.237 11.5838 72.0969 11.5838H71.2792V12.8899Z" fill="white"/>
<g clip-path="url(#clip0_928_6322)">
<path d="M36.6973 26.3422C37.6227 25.9274 38.5321 25.4009 39.4256 24.7946C38.9151 23.8374 38.3566 22.9598 37.7344 22.1621C37.5589 23.5821 37.2078 24.9861 36.6973 26.3422Z" fill="#AA322F"/>
<path d="M37.862 20.0078C37.862 20.7258 37.8142 21.4437 37.7344 22.1617C38.5321 21.5395 39.298 20.8055 40.016 20.0078H37.862Z" fill="#AA322F"/>
<path d="M37.7183 29.2937C37.4631 28.2407 37.112 27.2515 36.6972 26.3262C36.4419 26.9963 36.1388 27.6504 35.8037 28.2886L37.7183 29.2937Z" fill="#AA322F"/>
<path d="M28.6719 23.2945C29.4696 23.1988 30.2834 23.0233 31.0811 22.752C30.4908 22.1298 29.8685 21.6033 29.1984 21.1406C29.1186 21.8745 28.9431 22.5925 28.6719 23.2945Z" fill="#AA322F"/>
<path d="M31.0977 22.7364C31.8954 22.4652 32.6932 22.0982 33.475 21.6355C32.8368 21.0133 32.1348 20.4549 31.4327 19.9922C31.4168 20.9335 31.3051 21.8589 31.0977 22.7364Z" fill="#AA322F"/>
<path d="M30.124 25.305C30.9697 25.2253 31.8312 25.0657 32.6928 24.8104C32.2142 24.0446 31.6717 23.3586 31.0973 22.7363C30.8739 23.6298 30.5548 24.4913 30.124 25.305Z" fill="#AA322F"/>
<path d="M32.6924 24.8097C33.554 24.5545 34.4156 24.2035 35.2612 23.7567C34.7187 22.975 34.1124 22.257 33.4742 21.6348C33.3466 22.7356 33.0753 23.7886 32.6924 24.8097Z" fill="#AA322F"/>
<path d="M35.2607 23.7575C36.1064 23.3108 36.9361 22.7843 37.7338 22.1461C37.1116 21.3483 36.4255 20.6304 35.7234 19.9922C35.7075 21.2686 35.5639 22.5449 35.2607 23.7575Z" fill="#AA322F"/>
<path d="M33.9209 27.2998C34.8463 27.0764 35.7877 26.7573 36.7131 26.3265C36.2982 25.4011 35.8196 24.5396 35.2771 23.7578C34.958 24.9863 34.5112 26.1829 33.9209 27.2998Z" fill="#AA322F"/>
<path d="M29.2787 20.0078C29.2787 20.3907 29.2627 20.7577 29.2148 21.1406C29.9647 20.8534 30.7146 20.4705 31.4326 20.0078H29.2787Z" fill="#AA322F"/>
<path d="M33.5703 20.0078C33.5703 20.5503 33.5384 21.1087 33.4746 21.6511C34.2564 21.1885 35.0063 20.646 35.7243 20.0078H33.5703Z" fill="#AA322F"/>
<path d="M33.9221 27.2995C33.5871 26.406 33.1722 25.5764 32.6936 24.8105C32.5021 25.3211 32.2787 25.8157 32.0234 26.2943L33.9221 27.2995Z" fill="#AA322F"/>
<path d="M30.1243 25.3052C29.7094 24.5713 29.2148 23.8852 28.6883 23.2949C28.5606 23.6459 28.4011 23.981 28.2256 24.316L30.1243 25.3052Z" fill="#AA322F"/>
<path d="M22.7529 20.6942C23.4709 20.758 24.2049 20.7421 24.9388 20.6144C24.2527 20.3272 23.5507 20.1198 22.8327 19.9922C22.8327 20.2634 22.8168 20.4868 22.7529 20.6942Z" fill="#AA322F"/>
<path d="M22.5293 21.3172C23.2154 21.5565 23.9334 21.7001 24.6673 21.7799C24.061 21.3491 23.4228 20.9822 22.7527 20.7109C22.7048 20.9024 22.625 21.1098 22.5293 21.3172Z" fill="#AA322F"/>
<path d="M24.667 21.762C25.4009 21.8258 26.1668 21.8099 26.9326 21.7142C26.3104 21.2674 25.6403 20.9005 24.9542 20.6133C24.9063 21.0121 24.8106 21.3951 24.667 21.762Z" fill="#AA322F"/>
<path d="M26.9336 21.7153C27.6994 21.6036 28.4653 21.4122 29.2152 21.125C28.5451 20.6623 27.859 20.2953 27.141 19.9922C27.1251 20.5985 27.0612 21.1728 26.9336 21.7153Z" fill="#AA322F"/>
<path d="M26.3271 23.3103C27.093 23.3901 27.8908 23.3901 28.6885 23.2944C28.1461 22.6881 27.5557 22.1616 26.9335 21.7148C26.7899 22.2733 26.5824 22.7998 26.3271 23.3103Z" fill="#AA322F"/>
<path d="M24.986 20.0078C24.986 20.2152 24.9701 20.4226 24.9541 20.63C25.688 20.5184 26.422 20.311 27.14 20.0078H24.986Z" fill="#AA322F"/>
<path d="M26.3264 23.3093C25.8318 22.719 25.2734 22.2084 24.6671 21.7617C24.6032 21.9532 24.5235 22.1287 24.4277 22.3042L26.3264 23.3093Z" fill="#AA322F"/>
<path d="M31.8467 33.2668C32.8678 33.3306 33.9209 33.2987 34.9899 33.1711C34.9899 32.0702 34.8941 31.0172 34.7186 29.9961C33.889 31.1927 32.9316 32.2936 31.8467 33.2668Z" fill="#AA322F"/>
<path d="M35.82 28.3047C35.4849 28.9429 35.118 29.5651 34.7031 30.1554C35.7083 29.964 36.7135 29.6927 37.7187 29.3098L35.82 28.3047Z" fill="#AA322F"/>
<path d="M31.3679 36.4585C31.6232 35.4055 31.7827 34.3684 31.8465 33.3633C31.3041 33.8419 30.7456 34.2887 30.1553 34.6875L31.3679 36.4585Z" fill="#AA322F"/>
<path d="M26.1514 26.949C26.9013 27.2362 27.715 27.4436 28.5606 27.5712C28.3372 26.7576 28.0181 25.9758 27.6512 25.2578C27.2204 25.88 26.7098 26.4544 26.1514 26.949Z" fill="#AA322F"/>
<path d="M28.5605 27.5722C29.4062 27.6998 30.2837 27.7477 31.1772 27.6998C30.906 26.8383 30.539 26.0406 30.1242 25.3066C29.6934 26.1203 29.1668 26.8862 28.5605 27.5722Z" fill="#AA322F"/>
<path d="M26.4863 29.4071C27.2681 29.7261 28.1138 29.9814 28.9913 30.1569C28.9275 29.2635 28.7679 28.386 28.5446 27.5723C27.9383 28.2583 27.2522 28.8805 26.4863 29.4071Z" fill="#AA322F"/>
<path d="M28.9912 30.1562C29.8688 30.3317 30.7942 30.4115 31.7515 30.4115C31.6398 29.4702 31.4324 28.5608 31.1611 27.6992C30.5548 28.6086 29.8209 29.4383 28.9912 30.1562Z" fill="#AA322F"/>
<path d="M31.7676 30.4276C32.7249 30.4276 33.7141 30.3318 34.7034 30.1563C34.5278 29.1512 34.2566 28.2099 33.9215 27.3164C33.3312 28.4173 32.5973 29.4703 31.7676 30.4276Z" fill="#AA322F"/>
<path d="M28.9277 32.931C29.8531 33.1544 30.8264 33.3139 31.8476 33.3618C31.9114 32.3566 31.8795 31.3674 31.7678 30.4102C30.9222 31.3674 29.9648 32.213 28.9277 32.931Z" fill="#AA322F"/>
<path d="M28.2248 24.3008C28.0493 24.6358 27.8578 24.9549 27.6504 25.2581C28.4482 25.3538 29.2778 25.3697 30.1235 25.3059L28.2248 24.3008Z" fill="#AA322F"/>
<path d="M32.0224 26.3125C31.7671 26.7911 31.4799 27.2698 31.1768 27.7165C32.0703 27.6686 32.9957 27.541 33.9211 27.3176L32.0224 26.3125Z" fill="#AA322F"/>
<path d="M28.9268 32.9324C29.0385 31.991 29.0544 31.0497 28.9906 30.1562C28.5758 30.5232 28.145 30.8583 27.6982 31.1614L28.9268 32.9324Z" fill="#AA322F"/>
<path d="M26.486 29.4062C26.4541 28.5606 26.3424 27.731 26.151 26.9492C25.8638 27.2045 25.5766 27.4279 25.2734 27.6353L26.486 29.4062Z" fill="#AA322F"/>
<path d="M22.1299 21.8751C22.7362 22.2581 23.4063 22.5772 24.1083 22.8165C23.6297 22.2421 23.1032 21.7316 22.5128 21.3008C22.4171 21.5082 22.2894 21.6996 22.1299 21.8751Z" fill="#AA322F"/>
<path d="M21.6035 22.3377C22.0981 22.8642 22.6725 23.3269 23.3107 23.7257C22.9916 23.0556 22.5927 22.4334 22.13 21.875C21.9705 22.0505 21.795 22.21 21.6035 22.3377Z" fill="#AA322F"/>
<path d="M23.2949 23.7414C23.9172 24.1403 24.6033 24.4754 25.3372 24.7306C24.9862 24.0446 24.5873 23.4064 24.1086 22.832C23.8853 23.1511 23.614 23.4702 23.2949 23.7414Z" fill="#AA322F"/>
<path d="M25.3369 24.7325C26.0709 24.9877 26.8367 25.1792 27.6345 25.2749C27.2516 24.557 26.8208 23.9028 26.3102 23.3125C26.0549 23.823 25.7198 24.2857 25.3369 24.7325Z" fill="#AA322F"/>
<path d="M24.0449 25.8812C24.6831 26.3119 25.4011 26.6629 26.151 26.9501C25.9596 26.1683 25.6883 25.4185 25.3373 24.7324C24.9544 25.1632 24.5236 25.5461 24.0449 25.8812Z" fill="#AA322F"/>
<path d="M24.4275 22.3047C24.3318 22.4802 24.236 22.6557 24.1084 22.8152C24.8104 23.0546 25.5603 23.2141 26.3262 23.2939L24.4275 22.3047Z" fill="#AA322F"/>
<path d="M24.045 25.8801C23.8695 25.1302 23.6301 24.4123 23.2951 23.7422C23.1355 23.8698 22.976 23.9975 22.8164 24.1251L24.045 25.8801Z" fill="#AA322F"/>
<path d="M24.2842 37.3516C25.1458 37.8781 26.1031 38.3408 27.1083 38.7237C27.6029 37.7665 28.0018 36.7932 28.3209 35.8359C27.0285 36.4901 25.6723 37.0006 24.2842 37.3516Z" fill="#AA322F"/>
<path d="M30.1555 34.7031C29.5652 35.1179 28.9429 35.4849 28.3047 35.82C29.278 36.1231 30.2991 36.3305 31.3681 36.4741L30.1555 34.7031Z" fill="#AA322F"/>
<path d="M22.4174 39.8548C23.1354 39.0411 23.7576 38.2115 24.2842 37.334C23.5821 37.5095 22.8801 37.6371 22.1621 37.7169L22.4174 39.8548Z" fill="#AA322F"/>
<path d="M22.2266 29.0064C22.7531 29.6127 23.3753 30.1711 24.0455 30.6816C24.221 29.852 24.3008 29.0223 24.3008 28.2246C23.6466 28.5597 22.9446 28.8309 22.2266 29.0064Z" fill="#AA322F"/>
<path d="M24.0605 30.6807C24.7466 31.1912 25.4965 31.638 26.3102 32.0209C26.4538 31.1274 26.5177 30.2499 26.4858 29.4043C25.7359 29.9308 24.9062 30.3616 24.0605 30.6807Z" fill="#AA322F"/>
<path d="M21.3965 31.3358C21.939 31.9899 22.5612 32.6122 23.2633 33.1706C23.6143 32.3409 23.8855 31.5113 24.061 30.6816C23.1994 31.0167 22.3059 31.2241 21.3965 31.3358Z" fill="#AA322F"/>
<path d="M23.2471 33.1706C23.9491 33.729 24.7309 34.2395 25.5765 34.6862C25.9116 33.7928 26.1509 32.8993 26.3105 32.0059C25.3372 32.5324 24.3161 32.9153 23.2471 33.1706Z" fill="#AA322F"/>
<path d="M25.5771 34.7026C26.4228 35.1493 27.3322 35.5323 28.3055 35.8194C28.6087 34.8462 28.8161 33.8889 28.9278 32.9316C27.8907 33.6496 26.7578 34.2559 25.5771 34.7026Z" fill="#AA322F"/>
<path d="M21.9072 35.5969C22.6252 36.2351 23.423 36.8254 24.2846 37.336C24.8111 36.4744 25.2419 35.581 25.577 34.6875C24.3963 35.1502 23.1517 35.4533 21.9072 35.5969Z" fill="#AA322F"/>
<path d="M25.2737 27.6348C24.9706 27.8422 24.6515 28.0336 24.3164 28.2091C24.9865 28.6718 25.7045 29.0707 26.5023 29.3898L25.2737 27.6348Z" fill="#AA322F"/>
<path d="M27.7156 31.1758C27.2688 31.4789 26.7902 31.7661 26.3115 32.0214C27.1252 32.4043 28.0028 32.7074 28.9282 32.9308L27.7156 31.1758Z" fill="#AA322F"/>
<path d="M21.9076 35.597C22.4501 34.8152 22.8969 34.0015 23.2638 33.1719C22.7373 33.2995 22.1948 33.3952 21.6523 33.4591L21.9076 35.597Z" fill="#AA322F"/>
<path d="M21.3969 31.3372C21.7639 30.5714 22.0511 29.7896 22.2425 29.0078C21.8755 29.1035 21.5086 29.1674 21.1416 29.2152L21.3969 31.3372Z" fill="#AA322F"/>
<path d="M21.0137 22.657C21.3647 23.2792 21.8114 23.8855 22.322 24.412C22.1625 23.6781 21.9231 22.992 21.62 22.3379C21.4126 22.4815 21.2051 22.5772 21.0137 22.657Z" fill="#AA322F"/>
<path d="M20.3594 22.8158C20.5508 23.5178 20.838 24.1879 21.205 24.842C21.221 24.1081 21.1571 23.3742 21.0135 22.6562C20.8061 22.736 20.5987 22.7839 20.3594 22.8158Z" fill="#AA322F"/>
<path d="M21.2051 24.8426C21.5721 25.4967 22.0028 26.103 22.5294 26.6773C22.5453 25.9115 22.4656 25.1457 22.306 24.4277C21.955 24.6032 21.588 24.7468 21.2051 24.8426Z" fill="#AA322F"/>
<path d="M22.5293 26.6766C23.0558 27.251 23.6462 27.7616 24.3003 28.2242C24.3003 27.4106 24.2046 26.6288 24.0451 25.8789C23.5664 26.198 23.0558 26.4692 22.5293 26.6766Z" fill="#AA322F"/>
<path d="M20.8701 27.0746C21.2371 27.7447 21.6998 28.3989 22.2263 29.0052C22.4178 28.2234 22.5135 27.4416 22.5295 26.6758C22.0029 26.8672 21.4445 27.0108 20.8701 27.0746Z" fill="#AA322F"/>
<path d="M22.8162 24.1094C22.6567 24.2211 22.4812 24.3327 22.3057 24.4285C22.8162 24.9709 23.3906 25.4496 24.0448 25.8803L22.8162 24.1094Z" fill="#AA322F"/>
<path d="M20.8695 27.0774C21.077 26.3275 21.1727 25.5777 21.2046 24.8438C21.0131 24.8916 20.8217 24.9235 20.6143 24.9554L20.8695 27.0774Z" fill="#AA322F"/>
<path d="M15.7324 37.3516C16.2589 38.2131 16.8812 39.0587 17.5992 39.8724C18.4767 39.2661 19.2905 38.5801 20.0084 37.8781C18.5725 37.8621 17.1205 37.6866 15.7324 37.3516Z" fill="#AA322F"/>
<path d="M22.1618 37.7344C21.4438 37.8141 20.7258 37.862 20.0078 37.862C20.7258 38.58 21.5395 39.2501 22.4171 39.8563L22.1618 37.7344Z" fill="#AA322F"/>
<path d="M12.9082 38.7056C13.9134 38.3227 14.8548 37.86 15.7323 37.3335C15.0303 37.158 14.3442 36.9506 13.6741 36.6953L12.9082 38.7056Z" fill="#AA322F"/>
<path d="M17.7744 29.0078C17.9659 29.7896 18.2371 30.5714 18.62 31.3372C19.1625 30.6831 19.6252 29.981 20.0082 29.279C19.2423 29.279 18.4924 29.1833 17.7744 29.0078Z" fill="#AA322F"/>
<path d="M18.6191 31.3379C18.9861 32.1037 19.4488 32.8536 20.0073 33.5715C20.5497 32.8536 21.0284 32.1037 21.3954 31.3379C20.47 31.4496 19.5286 31.4496 18.6191 31.3379Z" fill="#AA322F"/>
<path d="M15.9551 30.6836C16.1306 31.5132 16.4018 32.3429 16.7528 33.1725C17.4549 32.6141 18.0771 31.9919 18.6196 31.3377C17.7102 31.2261 16.8167 31.0186 15.9551 30.6836Z" fill="#AA322F"/>
<path d="M16.7529 33.1719C17.1039 34.0015 17.5667 34.8152 18.1091 35.597C18.8271 34.9588 19.4494 34.2727 20.0078 33.5707C18.9069 33.5707 17.806 33.4431 16.7529 33.1719Z" fill="#AA322F"/>
<path d="M18.1094 35.5957C18.6519 36.3775 19.2901 37.1433 20.0081 37.8613C20.726 37.1433 21.3643 36.3934 21.9067 35.5957C20.6463 35.7552 19.3698 35.7552 18.1094 35.5957Z" fill="#AA322F"/>
<path d="M14.4238 34.7031C14.7589 35.5966 15.1897 36.49 15.7162 37.3516C16.5778 36.8251 17.3756 36.2348 18.0936 35.6125C16.849 35.453 15.6205 35.1499 14.4238 34.7031Z" fill="#AA322F"/>
<path d="M21.125 29.2148C20.758 29.2627 20.3751 29.2787 19.9922 29.2787C20.3751 29.9966 20.8378 30.6827 21.3803 31.3368L21.125 29.2148Z" fill="#AA322F"/>
<path d="M21.6512 33.4746C21.1087 33.5384 20.5662 33.5703 20.0078 33.5703C20.5503 34.2883 21.1885 34.9743 21.9065 35.5966L21.6512 33.4746Z" fill="#AA322F"/>
<path d="M14.4238 34.7014C15.2695 34.2546 16.0513 33.7441 16.7533 33.1857C16.2268 33.058 15.7003 32.8985 15.1897 32.707L14.4238 34.7014Z" fill="#AA322F"/>
<path d="M15.9551 30.6822C16.6412 30.1716 17.2475 29.6132 17.774 29.0069C17.407 28.9112 17.056 28.8155 16.705 28.6719L15.9551 30.6822Z" fill="#AA322F"/>
<path d="M19.6416 22.8164C19.6735 23.5344 19.7852 24.2683 20.0086 24.9862C20.216 24.2683 20.3436 23.5503 20.3755 22.8164C20.1362 22.8483 19.865 22.8483 19.6416 22.8164Z" fill="#AA322F"/>
<path d="M19.0031 22.6562C18.8595 23.3583 18.7798 24.0922 18.8117 24.842C19.1786 24.1879 19.4499 23.5178 19.6573 22.8158C19.418 22.7839 19.2106 22.736 19.0031 22.6562Z" fill="#AA322F"/>
<path d="M18.7959 24.8418C18.8119 25.5757 18.9235 26.3415 19.131 27.0755C19.4979 26.4054 19.7851 25.7033 20.0085 24.9854C19.5777 24.9854 19.1788 24.9375 18.7959 24.8418Z" fill="#AA322F"/>
<path d="M19.1309 27.0762C19.3383 27.826 19.6255 28.56 20.0084 29.2779C20.3913 28.56 20.6785 27.826 20.8859 27.0762C20.3116 27.14 19.7053 27.14 19.1309 27.0762Z" fill="#AA322F"/>
<path d="M17.4717 26.6777C17.4876 27.4436 17.5834 28.2253 17.7748 29.0071C18.3014 28.4008 18.7641 27.7467 19.131 27.0766C18.5566 27.0128 18.0142 26.8692 17.4717 26.6777Z" fill="#AA322F"/>
<path d="M20.6144 24.9531C20.407 24.985 20.2156 24.985 19.9922 24.985C20.1996 25.703 20.4868 26.405 20.8697 27.0751L20.6144 24.9531Z" fill="#AA322F"/>
<path d="M17.4717 26.6783C17.9982 26.1039 18.429 25.4976 18.796 24.8435C18.6045 24.7956 18.413 24.7318 18.2375 24.668L17.4717 26.6783Z" fill="#AA322F"/>
<path d="M8.16895 33.3613C8.23277 34.3665 8.39232 35.4035 8.64761 36.4565C9.71661 36.3289 10.7378 36.1055 11.711 35.8024C10.4346 35.1483 9.23795 34.3186 8.16895 33.3613Z" fill="#AA322F"/>
<path d="M13.6734 36.6982C13.0033 36.4429 12.3492 36.1397 11.7109 35.8047C12.0141 36.7779 12.413 37.7352 12.9235 38.6925L13.6734 36.6982Z" fill="#AA322F"/>
<path d="M5.02637 33.266C6.09537 33.3936 7.14843 33.4255 8.15361 33.3617C7.61113 32.8831 7.10056 32.3725 6.6219 31.8301L5.02637 33.266Z" fill="#AA322F"/>
<path d="M13.8497 26.9473C13.6582 27.729 13.5466 28.5587 13.5146 29.4043C14.2965 29.0852 15.0304 28.6863 15.7005 28.2236C15.0464 27.8726 14.4241 27.4419 13.8497 26.9473Z" fill="#AA322F"/>
<path d="M13.5149 29.4043C13.483 30.2499 13.5468 31.1274 13.6904 32.0209C14.5041 31.638 15.254 31.1912 15.9401 30.6807C15.0945 30.3616 14.2807 29.9308 13.5149 29.4043Z" fill="#AA322F"/>
<path d="M11.4565 27.5703C11.2331 28.384 11.0736 29.2615 11.0098 30.155C11.8873 29.9795 12.7329 29.7242 13.5148 29.4051C12.7649 28.8786 12.0628 28.2564 11.4565 27.5703Z" fill="#AA322F"/>
<path d="M11.009 30.1543C10.9452 31.0478 10.9611 31.9891 11.0728 32.9304C11.9982 32.707 12.8758 32.388 13.6895 32.021C12.7322 31.5104 11.8227 30.8882 11.009 30.1543Z" fill="#AA322F"/>
<path d="M11.0732 32.9316C11.1849 33.873 11.3923 34.8462 11.6955 35.8194C12.6688 35.5163 13.5782 35.1493 14.4239 34.7026C13.2432 34.2559 12.1263 33.6496 11.0732 32.9316Z" fill="#AA322F"/>
<path d="M8.24902 30.4258C8.13734 31.3671 8.10543 32.3563 8.16925 33.3774C9.19039 33.3136 10.1637 33.17 11.0891 32.9466C10.036 32.2127 9.0787 31.3671 8.24902 30.4258Z" fill="#AA322F"/>
<path d="M16.7213 28.6717C16.3703 28.544 16.0353 28.3845 15.7002 28.209C15.7002 29.0227 15.78 29.8364 15.9555 30.666L16.7213 28.6717Z" fill="#AA322F"/>
<path d="M15.1899 32.6916C14.6793 32.5001 14.1847 32.2768 13.7061 32.0215C13.8497 32.9149 14.1049 33.8084 14.44 34.7019L15.1899 32.6916Z" fill="#AA322F"/>
<path d="M8.24902 30.4258C9.20634 30.4258 10.1318 30.3301 11.0093 30.1706C10.5945 29.8036 10.2115 29.4207 9.84456 29.0059L8.24902 30.4258Z" fill="#AA322F"/>
<path d="M11.4561 27.5704C12.3017 27.4427 13.0995 27.2353 13.8653 26.9481C13.5781 26.6928 13.3228 26.4376 13.0675 26.1504L11.4561 27.5704Z" fill="#AA322F"/>
<path d="M18.3973 22.3379C18.0782 22.992 17.8549 23.694 17.6953 24.412C18.2059 23.8695 18.6367 23.2792 19.0036 22.657C18.7962 22.5772 18.5888 22.4815 18.3973 22.3379Z" fill="#AA322F"/>
<path d="M17.8867 21.875C17.424 22.4334 17.0411 23.0556 16.7061 23.7257C17.3283 23.3269 17.9027 22.8642 18.4133 22.3377C18.2218 22.21 18.0303 22.0505 17.8867 21.875Z" fill="#AA322F"/>
<path d="M16.706 23.7422C16.3868 24.4123 16.1316 25.1302 15.9561 25.8801C16.5943 25.4493 17.1846 24.9707 17.6952 24.4282C17.3442 24.2368 17.0091 23.9975 16.706 23.7422Z" fill="#AA322F"/>
<path d="M15.9555 25.8789C15.78 26.6288 15.7002 27.4106 15.7002 28.2242C16.3703 27.7616 16.9607 27.251 17.4712 26.6766C16.9447 26.4692 16.4341 26.198 15.9555 25.8789Z" fill="#AA322F"/>
<path d="M14.6633 24.7305C14.3123 25.4165 14.0411 26.1664 13.8496 26.9482C14.5995 26.661 15.3175 26.294 15.9557 25.8792C15.493 25.5442 15.0463 25.1612 14.6633 24.7305Z" fill="#AA322F"/>
<path d="M18.2376 24.6671C18.0461 24.6032 17.8706 24.5235 17.6951 24.4277C17.5356 25.1457 17.4558 25.9115 17.4717 26.6773L18.2376 24.6671Z" fill="#AA322F"/>
<path d="M14.6631 24.7305C15.397 24.4752 16.0672 24.1402 16.7054 23.7413C16.5458 23.6137 16.4022 23.4541 16.2746 23.3105L14.6631 24.7305Z" fill="#AA322F"/>
<path d="M3.30239 26.3418C2.88755 27.2672 2.55249 28.2564 2.28125 29.3094C3.28644 29.6923 4.30758 29.9635 5.29681 30.155C4.48309 28.9584 3.81296 27.682 3.30239 26.3418Z" fill="#AA322F"/>
<path d="M6.63752 31.8474C6.15886 31.305 5.71212 30.7466 5.31323 30.1562C5.13772 31.1614 5.04199 32.1984 5.04199 33.2834L6.63752 31.8474Z" fill="#AA322F"/>
<path d="M0.574219 24.7938C1.46772 25.4 2.37717 25.9265 3.30258 26.3414C3.04729 25.6713 2.83988 24.9852 2.66437 24.2832L0.574219 24.7938Z" fill="#AA322F"/>
<path d="M11.3286 23.2949C10.7861 23.9012 10.3074 24.5713 9.89258 25.3052C10.7382 25.385 11.5679 25.369 12.3657 25.2573C11.9349 24.6511 11.5838 23.981 11.3286 23.2949Z" fill="#AA322F"/>
<path d="M9.89192 25.3047C9.47708 26.0386 9.12606 26.8523 8.83887 27.6979C9.73237 27.7458 10.6099 27.6979 11.4555 27.5703C10.8492 26.8842 10.3068 26.1184 9.89192 25.3047Z" fill="#AA322F"/>
<path d="M8.91877 22.7363C8.32843 23.3586 7.8019 24.0446 7.32324 24.8104C8.18483 25.0657 9.04642 25.2253 9.89205 25.305C9.46126 24.4913 9.12619 23.6298 8.91877 22.7363Z" fill="#AA322F"/>
<path d="M7.30766 24.8105C6.829 25.5764 6.41416 26.406 6.0791 27.2995C7.00451 27.5228 7.92992 27.6664 8.82342 27.6983C8.21712 26.8049 7.70655 25.8316 7.30766 24.8105Z" fill="#AA322F"/>
<path d="M6.09529 27.3008C5.76023 28.1942 5.48899 29.1515 5.31348 30.1407C6.31866 30.3322 7.29194 30.4119 8.24926 30.4119C7.40362 29.4706 6.66968 28.4176 6.09529 27.3008Z" fill="#AA322F"/>
<path d="M4.73871 23.7734C4.19623 24.5552 3.70162 25.4168 3.30273 26.3421C4.22814 26.757 5.15355 27.0761 6.09492 27.3154C5.50457 26.1826 5.04187 24.986 4.73871 23.7734Z" fill="#AA322F"/>
<path d="M13.0675 26.149C12.8123 25.8618 12.5889 25.5746 12.3655 25.2715C11.9826 25.9894 11.6794 26.7553 11.4561 27.5849L13.0675 26.149Z" fill="#AA322F"/>
<path d="M9.84456 28.9896C9.47758 28.5748 9.14252 28.144 8.83937 27.6973C8.56813 28.5588 8.36071 29.4682 8.24902 30.4096L9.84456 28.9896Z" fill="#AA322F"/>
<path d="M4.73828 23.7723C5.58391 24.219 6.4455 24.57 7.30709 24.8253C7.11562 24.3147 6.95607 23.7882 6.82843 23.2617L4.73828 23.7723Z" fill="#AA322F"/>
<path d="M8.91895 22.7355C9.71671 23.0067 10.5304 23.1982 11.3282 23.2779C11.2006 22.9269 11.0889 22.5759 10.9931 22.209L8.91895 22.7355Z" fill="#AA322F"/>
<path d="M17.4871 21.3164C16.9127 21.7472 16.3703 22.2577 15.8916 22.8321C16.5936 22.5928 17.2638 22.2737 17.8701 21.8908C17.7265 21.6993 17.5829 21.5079 17.4871 21.3164Z" fill="#AA322F"/>
<path d="M17.2476 20.6934C16.5775 20.9646 15.9393 21.3315 15.333 21.7623C16.067 21.6985 16.7849 21.539 17.471 21.2996C17.3753 21.1082 17.2955 20.9008 17.2476 20.6934Z" fill="#AA322F"/>
<path d="M15.3488 21.7617C14.7425 22.1925 14.2 22.719 13.6895 23.3093C14.4553 23.2295 15.2052 23.07 15.9072 22.8307C15.6679 22.4956 15.4764 22.1287 15.3488 21.7617Z" fill="#AA322F"/>
<path d="M13.6895 23.3105C13.1949 23.9009 12.7482 24.555 12.3652 25.273C13.163 25.1772 13.9448 24.9858 14.6628 24.7305C14.2799 24.2838 13.9448 23.8211 13.6895 23.3105Z" fill="#AA322F"/>
<path d="M13.0832 21.7148C12.461 22.1616 11.8706 22.6881 11.3281 23.2944C12.1259 23.3901 12.9237 23.3901 13.6895 23.3103C13.4183 22.7998 13.2109 22.2733 13.0832 21.7148Z" fill="#AA322F"/>
<path d="M16.2746 23.295C16.1469 23.1355 16.0193 22.976 15.8916 22.8164C15.413 23.3908 14.9981 24.029 14.6631 24.715L16.2746 23.295Z" fill="#AA322F"/>
<path d="M13.083 21.7137C13.8489 21.8254 14.5988 21.8413 15.3487 21.7615C15.2848 21.5701 15.221 21.3946 15.1732 21.2031L13.083 21.7137Z" fill="#AA322F"/>
<path d="M2.28161 17.8555C1.48385 18.4777 0.71799 19.2116 0 20.0094C0.71799 20.8071 1.48385 21.541 2.28161 22.1632C2.1061 20.7273 2.1061 19.2754 2.28161 17.8555Z" fill="#AA322F"/>
<path d="M2.66501 24.2841C2.4895 23.5821 2.36186 22.8801 2.28209 22.1621C1.65983 22.9598 1.08544 23.8374 0.59082 24.7946L2.66501 24.2841Z" fill="#AA322F"/>
<path d="M0.574219 15.2227C1.08479 16.1799 1.64323 17.0574 2.26548 17.8552C2.34526 17.1372 2.4729 16.4352 2.64841 15.7332L0.574219 15.2227Z" fill="#AA322F"/>
<path d="M10.8018 18.875C10.0519 19.1622 9.30197 19.5451 8.58398 20.0078C9.30197 20.4705 10.0359 20.8534 10.8018 21.1406C10.706 20.3907 10.706 19.6089 10.8018 18.875Z" fill="#AA322F"/>
<path d="M8.58427 20.0078C7.86628 20.4705 7.18021 21.013 6.54199 21.6511C7.3238 22.1138 8.12157 22.4808 8.91934 22.752C8.69596 21.8586 8.58427 20.9332 8.58427 20.0078Z" fill="#AA322F"/>
<path d="M8.91934 17.2637C8.12157 17.5349 7.3238 17.9019 6.54199 18.3645C7.18021 18.9868 7.88224 19.5452 8.58427 20.0079C8.58427 19.0666 8.69596 18.1571 8.91934 17.2637Z" fill="#AA322F"/>
<path d="M6.54169 18.3633C5.75988 18.826 5.00998 19.3684 4.29199 20.0066C5.00998 20.6448 5.75988 21.1873 6.54169 21.6499C6.3981 20.565 6.3981 19.4482 6.54169 18.3633Z" fill="#AA322F"/>
<path d="M4.29162 20.0078C3.57363 20.646 2.90351 21.364 2.28125 22.1617C3.07902 22.7839 3.90869 23.3264 4.75433 23.7731C4.45117 22.5446 4.29162 21.2682 4.29162 20.0078Z" fill="#AA322F"/>
<path d="M4.7387 16.2422C3.89307 16.6889 3.06339 17.2154 2.26562 17.8536C2.88788 18.6513 3.57396 19.3693 4.276 20.0075C4.29195 18.7311 4.4515 17.4707 4.7387 16.2422Z" fill="#AA322F"/>
<path d="M10.9935 22.2259C10.8977 21.8589 10.8339 21.492 10.786 21.125C10.1159 21.5877 9.49367 22.1142 8.90332 22.7364L10.9935 22.2259Z" fill="#AA322F"/>
<path d="M6.82908 23.2462C6.70143 22.7197 6.6057 22.1772 6.54188 21.6348C5.90367 22.257 5.29736 22.975 4.75488 23.7567L6.82908 23.2462Z" fill="#AA322F"/>
<path d="M4.73828 16.2422C5.28076 17.024 5.88706 17.7419 6.52528 18.3642C6.5891 17.8217 6.68483 17.2792 6.81247 16.7527L4.73828 16.2422Z" fill="#AA322F"/>
<path d="M8.91895 17.2637C9.50929 17.8859 10.1315 18.4124 10.8017 18.8751C10.8495 18.5081 10.9134 18.1412 11.0091 17.7742L8.91895 17.2637Z" fill="#AA322F"/>
<path d="M17.1676 20.0078C16.4496 20.1354 15.7476 20.3429 15.0615 20.63C15.7955 20.7417 16.5294 20.7736 17.2474 20.7098C17.1995 20.4865 17.1676 20.2631 17.1676 20.0078Z" fill="#AA322F"/>
<path d="M17.2474 19.306C16.5294 19.2422 15.7955 19.2581 15.0615 19.3858C15.7476 19.6729 16.4496 19.8804 17.1676 20.008C17.1676 19.7527 17.1995 19.5294 17.2474 19.306Z" fill="#AA322F"/>
<path d="M15.0619 19.3867C14.3279 19.4984 13.594 19.7058 12.876 20.009C13.594 20.3121 14.3279 20.5035 15.0619 20.6312C15.014 20.2323 15.014 19.7856 15.0619 19.3867Z" fill="#AA322F"/>
<path d="M12.876 20.0078C12.158 20.311 11.4559 20.6779 10.8018 21.1406C11.5517 21.4278 12.3175 21.6192 13.0834 21.7309C12.9398 21.1725 12.876 20.5981 12.876 20.0078Z" fill="#AA322F"/>
<path d="M13.0834 18.2852C12.3175 18.3968 11.5517 18.5883 10.8018 18.8755C11.4719 19.3382 12.1739 19.7051 12.876 20.0083C12.876 19.4179 12.9398 18.8436 13.0834 18.2852Z" fill="#AA322F"/>
<path d="M15.1732 21.2036C15.1253 21.0121 15.0934 20.8207 15.0615 20.6133C14.3754 20.9005 13.7053 21.2674 13.083 21.7142L15.1732 21.2036Z" fill="#AA322F"/>
<path d="M13.083 18.2852C13.7053 18.7319 14.3754 19.0988 15.0615 19.386C15.0774 19.1786 15.1253 18.9872 15.1732 18.7957L13.083 18.2852Z" fill="#AA322F"/>
<path d="M5.31276 9.86133C4.30758 10.0368 3.30239 10.324 2.28125 10.7069C2.53654 11.7599 2.88755 12.7491 3.28644 13.6745C3.81296 12.3183 4.48308 11.042 5.31276 9.86133Z" fill="#AA322F"/>
<path d="M2.66437 15.732C2.83988 15.03 3.04729 14.3439 3.30258 13.6738C2.37717 14.0886 1.46772 14.6152 0.574219 15.2214L2.66437 15.732Z" fill="#AA322F"/>
<path d="M5.02637 6.73438C5.02637 7.81929 5.1221 8.85635 5.29761 9.86149C5.71245 9.27117 6.1592 8.6968 6.6219 8.1703L5.02637 6.73438Z" fill="#AA322F"/>
<path d="M12.3657 14.7424C11.5679 14.6467 10.7382 14.6307 9.89258 14.6945C10.3074 15.4285 10.802 16.1145 11.3286 16.7048C11.5838 16.0188 11.9349 15.3487 12.3657 14.7424Z" fill="#AA322F"/>
<path d="M9.89205 14.6953C9.04642 14.7751 8.18483 14.9346 7.32324 15.1899C7.8019 15.9557 8.32843 16.6418 8.91877 17.264C9.12619 16.3706 9.46126 15.509 9.89205 14.6953Z" fill="#AA322F"/>
<path d="M11.4555 12.431C10.6099 12.3034 9.73237 12.2555 8.83887 12.3034C9.11011 13.1649 9.47708 13.9626 9.89192 14.6966C10.3068 13.8829 10.8492 13.1171 11.4555 12.431Z" fill="#AA322F"/>
<path d="M8.83904 12.3008C7.94554 12.3486 7.02014 12.4763 6.09473 12.6996C6.42979 13.5931 6.84463 14.4228 7.32329 15.1886C7.70621 14.1675 8.21679 13.1942 8.83904 12.3008Z" fill="#AA322F"/>
<path d="M6.09492 12.7012C5.16951 12.9245 4.22814 13.2436 3.30273 13.6744C3.71757 14.5998 4.19623 15.4613 4.73871 16.2431C5.04187 15.0146 5.50457 13.818 6.09492 12.7012Z" fill="#AA322F"/>
<path d="M8.24926 9.58984C7.29194 9.58984 6.30271 9.68557 5.31348 9.86107C5.48899 10.8662 5.76023 11.8075 6.09529 12.701C6.66968 11.5842 7.40362 10.5312 8.24926 9.58984Z" fill="#AA322F"/>
<path d="M10.9931 17.776C11.0889 17.409 11.1846 17.058 11.3282 16.707C10.5304 16.8028 9.71671 16.9783 8.91895 17.2495L10.9931 17.776Z" fill="#AA322F"/>
<path d="M6.82843 16.753C6.95607 16.2265 7.11562 15.7 7.30709 15.1895C6.4455 15.4447 5.58391 15.7957 4.73828 16.2425L6.82843 16.753Z" fill="#AA322F"/>
<path d="M8.24902 9.58984C8.36071 10.5312 8.56813 11.4406 8.83937 12.3021C9.14252 11.8554 9.49354 11.4246 9.84456 11.0098L8.24902 9.58984Z" fill="#AA322F"/>
<path d="M11.4561 12.4297C11.6794 13.2434 11.9985 14.0252 12.3655 14.7431C12.5729 14.44 12.8123 14.1368 13.0675 13.8656L11.4561 12.4297Z" fill="#AA322F"/>
<path d="M17.4866 18.701C16.8006 18.4616 16.0826 18.3181 15.3486 18.2383C15.9549 18.6691 16.5931 19.036 17.2633 19.3072C17.2952 19.0998 17.375 18.8924 17.4866 18.701Z" fill="#AA322F"/>
<path d="M17.8857 18.1269C17.2794 17.744 16.6093 17.4249 15.9072 17.1855C16.3859 17.7599 16.9124 18.2705 17.5028 18.7012C17.5825 18.4938 17.7261 18.3024 17.8857 18.1269Z" fill="#AA322F"/>
<path d="M15.8916 17.1857C15.1896 16.9464 14.4397 16.7868 13.6738 16.707C14.1684 17.2974 14.7269 17.8079 15.3332 18.2387C15.4768 17.8717 15.6682 17.5207 15.8916 17.1857Z" fill="#AA322F"/>
<path d="M13.6895 16.7064C12.9237 16.6266 12.1259 16.6266 11.3281 16.7224C11.8706 17.3286 12.461 17.8551 13.0832 18.3019C13.2109 17.7435 13.4183 17.201 13.6895 16.7064Z" fill="#AA322F"/>
<path d="M14.6628 15.2866C13.9289 15.0313 13.163 14.8399 12.3652 14.7441C12.7482 15.4621 13.179 16.1162 13.6895 16.7066C13.9448 16.196 14.2799 15.7174 14.6628 15.2866Z" fill="#AA322F"/>
<path d="M15.1732 18.7959C15.221 18.6045 15.2848 18.413 15.3487 18.2375C14.6147 18.1737 13.8489 18.1896 13.083 18.2854L15.1732 18.7959Z" fill="#AA322F"/>
<path d="M14.6631 15.2852C15.0141 15.9712 15.413 16.6094 15.8916 17.1838C16.0033 17.0242 16.131 16.8647 16.2746 16.7051L14.6631 15.2852Z" fill="#AA322F"/>
<path d="M11.711 4.18149C10.7378 3.87835 9.71661 3.67094 8.64761 3.52734C8.39232 4.58035 8.23277 5.61741 8.16895 6.62255C9.23795 5.68122 10.4346 4.85158 11.711 4.18149Z" fill="#AA322F"/>
<path d="M6.63752 8.16903C7.11618 7.62657 7.62675 7.11602 8.16924 6.63738C7.16405 6.57356 6.111 6.60547 5.04199 6.73311L6.63752 8.16903Z" fill="#AA322F"/>
<path d="M12.9079 1.29297C12.4133 2.25025 12.0144 3.22348 11.6953 4.18077C12.3335 3.84572 12.9877 3.54258 13.6578 3.2873L12.9079 1.29297Z" fill="#AA322F"/>
<path d="M15.7005 11.792C15.0304 11.3293 14.3124 10.9304 13.5146 10.6113C13.5466 11.4569 13.6582 12.2866 13.8497 13.0683C14.4241 12.5578 15.0464 12.127 15.7005 11.792Z" fill="#AA322F"/>
<path d="M13.5148 10.5936C12.7329 10.2745 11.8873 10.0193 11.0098 9.84375C11.0736 10.7372 11.2331 11.6147 11.4565 12.4284C12.0628 11.7424 12.7649 11.1201 13.5148 10.5936Z" fill="#AA322F"/>
<path d="M15.9557 9.31871C15.2696 8.80816 14.5197 8.36143 13.706 7.97852C13.5624 8.87198 13.4986 9.74948 13.5305 10.5951C14.2804 10.0845 15.0941 9.65376 15.9557 9.31871Z" fill="#AA322F"/>
<path d="M13.7061 7.99535C12.8924 7.61244 12.0148 7.3093 11.0894 7.08594C10.9777 8.02726 10.9618 8.96859 11.0256 9.86205C11.8234 9.12814 12.7328 8.48995 13.7061 7.99535Z" fill="#AA322F"/>
<path d="M11.0734 7.06945C10.148 6.84608 9.17476 6.68654 8.15362 6.63867C8.0898 7.64382 8.12171 8.63301 8.2334 9.59029C9.07903 8.63301 10.0364 7.78741 11.0734 7.06945Z" fill="#AA322F"/>
<path d="M14.4239 5.31409C13.5782 4.86736 12.6688 4.48445 11.6955 4.19727C11.3923 5.1705 11.1849 6.12778 11.0732 7.08506C12.1263 6.35115 13.2432 5.76082 14.4239 5.31409Z" fill="#AA322F"/>
<path d="M13.0675 13.8497C13.3228 13.5625 13.5781 13.3072 13.8653 13.0519C13.1154 12.7647 12.3017 12.5573 11.4561 12.4297L13.0675 13.8497Z" fill="#AA322F"/>
<path d="M9.84456 11.0098C10.2115 10.595 10.5945 10.2121 11.0093 9.84512C10.1318 9.66962 9.20634 9.58984 8.24902 9.58984L9.84456 11.0098Z" fill="#AA322F"/>
<path d="M14.4244 5.31445C14.0893 6.20792 13.85 7.10138 13.6904 7.99484C14.1691 7.73956 14.6637 7.5162 15.1743 7.32474L14.4244 5.31445Z" fill="#AA322F"/>
<path d="M15.9555 9.31836C15.78 10.148 15.7002 10.9776 15.7002 11.7754C16.0353 11.5999 16.3703 11.4563 16.7213 11.3127L15.9555 9.31836Z" fill="#AA322F"/>
<path d="M18.3973 17.6615C17.9027 17.135 17.3283 16.6723 16.7061 16.2734C17.0252 16.9435 17.424 17.5658 17.8867 18.1242C18.0303 17.9487 18.2218 17.7891 18.3973 17.6615Z" fill="#AA322F"/>
<path d="M19.0036 17.3429C18.6526 16.7207 18.2059 16.1144 17.6953 15.5879C17.8549 16.3218 18.0942 17.0079 18.3973 17.662C18.5888 17.5344 18.7962 17.4227 19.0036 17.3429Z" fill="#AA322F"/>
<path d="M17.6952 15.5886C17.1846 15.0461 16.6102 14.5675 15.9561 14.1367C16.1316 14.8866 16.3709 15.6045 16.706 16.2746C17.0091 16.0034 17.3442 15.7641 17.6952 15.5886Z" fill="#AA322F"/>
<path d="M15.9557 14.1373C15.3175 13.7065 14.5995 13.3555 13.8496 13.0684C14.0411 13.8501 14.3123 14.6 14.6633 15.2861C15.0463 14.8393 15.493 14.4564 15.9557 14.1373Z" fill="#AA322F"/>
<path d="M17.4712 13.3386C16.9447 12.7643 16.3544 12.2537 15.7002 11.791C15.7002 12.6047 15.7959 13.3865 15.9555 14.1364C16.4341 13.8013 16.9447 13.5301 17.4712 13.3386Z" fill="#AA322F"/>
<path d="M16.2746 16.7051C16.4022 16.5456 16.5618 16.402 16.7054 16.2743C16.0831 15.8755 15.397 15.5404 14.6631 15.2852L16.2746 16.7051Z" fill="#AA322F"/>
<path d="M17.4717 13.3398C17.4558 14.1057 17.5356 14.8715 17.6951 15.5895C17.8706 15.4937 18.0461 15.414 18.2376 15.3501L17.4717 13.3398Z" fill="#AA322F"/>
<path d="M20.0084 2.13887C19.2905 1.42091 18.4927 0.750809 17.5992 0.144531C16.8812 0.95822 16.2589 1.78786 15.7324 2.66537C17.1205 2.31437 18.5725 2.13887 20.0084 2.13887Z" fill="#AA322F"/>
<path d="M13.6741 3.30326C14.3442 3.04798 15.0303 2.84057 15.7323 2.66507C14.8707 2.13857 13.9134 1.67588 12.9082 1.29297L13.6741 3.30326Z" fill="#AA322F"/>
<path d="M22.418 0.144531C21.5405 0.750809 20.7268 1.43686 20.0088 2.13887C20.7268 2.13887 21.4448 2.18673 22.1628 2.2665L22.418 0.144531Z" fill="#AA322F"/>
<path d="M20.0082 10.7378C19.6252 10.0199 19.1625 9.33383 18.62 8.67969C18.2531 9.44551 17.9659 10.2273 17.7744 11.0091C18.4924 10.8176 19.2423 10.7378 20.0082 10.7378Z" fill="#AA322F"/>
<path d="M18.6196 8.66291C18.0771 8.00877 17.4549 7.38654 16.7528 6.82812C16.4018 7.65777 16.1306 8.48741 15.9551 9.31705C16.8167 8.99796 17.7102 8.7746 18.6196 8.66291Z" fill="#AA322F"/>
<path d="M21.3954 8.66334C21.0284 7.89752 20.5657 7.14765 20.0073 6.42969C19.4648 7.14765 19.0021 7.89752 18.6191 8.66334C19.5286 8.55166 20.47 8.55166 21.3954 8.66334Z" fill="#AA322F"/>
<path d="M20.0078 6.43054C19.4653 5.71258 18.8271 5.02653 18.1091 4.4043C17.5667 5.18608 17.1199 5.99976 16.7529 6.82941C17.806 6.57413 18.9069 6.4465 20.0078 6.43054Z" fill="#AA322F"/>
<path d="M18.1092 4.40508C17.3912 3.76689 16.5934 3.17657 15.7318 2.66602C15.2053 3.52757 14.7745 4.42103 14.4395 5.31449C15.6201 4.86776 16.8487 4.56462 18.1092 4.40508Z" fill="#AA322F"/>
<path d="M21.9067 4.40424C21.3643 3.62246 20.726 2.85663 20.0081 2.13867C19.2901 2.85663 18.6519 3.6065 18.1094 4.40424C19.3698 4.26064 20.6463 4.26064 21.9067 4.40424Z" fill="#AA322F"/>
<path d="M16.7216 11.3286C17.0726 11.201 17.4236 11.0893 17.7906 10.9936C17.2641 10.3873 16.6578 9.82891 15.9717 9.31836L16.7216 11.3286Z" fill="#AA322F"/>
<path d="M15.1897 7.30879C15.7003 7.11733 16.2268 6.95779 16.7533 6.83015C16.0513 6.27173 15.2695 5.76118 14.4238 5.31445L15.1897 7.30879Z" fill="#AA322F"/>
<path d="M21.9065 4.4043C21.1885 5.04248 20.5662 5.72854 20.0078 6.43054C20.5503 6.43054 21.1087 6.46245 21.6512 6.52627L21.9065 4.4043Z" fill="#AA322F"/>
<path d="M21.3959 8.66406C20.8534 9.3182 20.3907 10.0202 20.0078 10.7222C20.3907 10.7222 20.7577 10.7382 21.1406 10.786L21.3959 8.66406Z" fill="#AA322F"/>
<path d="M19.641 17.1864C19.4495 16.4844 19.1623 15.8143 18.7954 15.1602C18.7794 15.8941 18.8432 16.628 18.9868 17.3459C19.2102 17.2662 19.4176 17.2183 19.641 17.1864Z" fill="#AA322F"/>
<path d="M20.3589 17.1855C20.327 16.4675 20.2153 15.7336 19.992 15.0156C19.7846 15.7336 19.6569 16.4515 19.625 17.1855C19.8643 17.1695 20.1356 17.1695 20.3589 17.1855Z" fill="#AA322F"/>
<path d="M20.0075 15.0295C19.8001 14.3116 19.5129 13.6095 19.13 12.9395C18.9226 13.6893 18.8268 14.4392 18.7949 15.1731C19.1778 15.0774 19.5767 15.0295 20.0075 15.0295Z" fill="#AA322F"/>
<path d="M19.1301 12.9247C18.7631 12.2546 18.3004 11.6004 17.7739 10.9941C17.5824 11.7759 17.4867 12.5577 17.4707 13.3235C18.0132 13.1321 18.5557 13.0044 19.1301 12.9247Z" fill="#AA322F"/>
<path d="M20.8693 12.9244C20.6619 12.1745 20.3747 11.4406 19.9918 10.7227C19.6089 11.4406 19.3217 12.1745 19.1143 12.9244C19.7046 12.8606 20.3109 12.8606 20.8693 12.9244Z" fill="#AA322F"/>
<path d="M18.2366 15.3345C18.428 15.2707 18.6035 15.2069 18.795 15.159C18.428 14.5049 17.9972 13.8986 17.4707 13.3242L18.2366 15.3345Z" fill="#AA322F"/>
<path d="M20.8688 12.9258C20.5018 13.5959 20.2146 14.2979 19.9912 15.0158C20.1986 15.0158 20.406 15.0318 20.6135 15.0478L20.8688 12.9258Z" fill="#AA322F"/>
<path d="M28.3043 4.18077C28.0011 3.20753 27.6022 2.25025 27.0917 1.29297C26.0865 1.67588 25.1451 2.13857 24.2676 2.66507C25.6716 3.00012 27.0278 3.51067 28.3043 4.18077Z" fill="#AA322F"/>
<path d="M22.1621 2.28246C22.8801 2.36223 23.5821 2.48987 24.2842 2.66537C23.7576 1.80382 23.1354 0.95822 22.4174 0.144531L22.1621 2.28246Z" fill="#AA322F"/>
<path d="M31.3681 3.54297C30.2991 3.67061 29.278 3.89397 28.3047 4.19711C28.9429 4.53216 29.5652 4.89912 30.1555 5.31394L31.3681 3.54297Z" fill="#AA322F"/>
<path d="M24.3008 11.7891C24.3008 10.9754 24.221 10.1617 24.0455 9.33203C23.3594 9.84258 22.7531 10.401 22.2266 11.0073C22.9446 11.1668 23.6466 11.438 24.3008 11.7891Z" fill="#AA322F"/>
<path d="M24.061 9.31705C23.8855 8.48741 23.6143 7.65777 23.2633 6.82812C22.5612 7.38654 21.939 8.00877 21.3965 8.66291C22.3059 8.7746 23.1994 8.99796 24.061 9.31705Z" fill="#AA322F"/>
<path d="M26.4858 10.5931C26.5177 9.74753 26.4538 8.87002 26.3102 7.97656C25.4965 8.35947 24.7466 8.80621 24.0605 9.31676C24.9062 9.6518 25.7359 10.0826 26.4858 10.5931Z" fill="#AA322F"/>
<path d="M26.3105 7.99289C26.1669 7.09942 25.9116 6.20596 25.5765 5.3125C24.7309 5.75923 23.9491 6.26978 23.2471 6.82819C24.3161 7.08347 25.3372 7.48234 26.3105 7.99289Z" fill="#AA322F"/>
<path d="M25.577 5.31254C25.2419 4.41908 24.8111 3.52562 24.2846 2.66406C23.423 3.19057 22.6252 3.78089 21.9072 4.40312C23.1517 4.56267 24.3963 4.86581 25.577 5.31254Z" fill="#AA322F"/>
<path d="M28.9278 7.06748C28.8161 6.12616 28.6087 5.15292 28.3055 4.17969C27.3322 4.48283 26.4228 4.84978 25.5771 5.29651C26.7578 5.7592 27.8907 6.34952 28.9278 7.06748Z" fill="#AA322F"/>
<path d="M21.125 10.8017C21.492 10.8495 21.8589 10.9133 22.2259 11.0091C22.0345 10.2273 21.7632 9.44551 21.3803 8.67969L21.125 10.8017Z" fill="#AA322F"/>
<path d="M21.6514 6.54027C22.1938 6.60409 22.7363 6.69982 23.2629 6.82745C22.9118 5.99781 22.4491 5.18412 21.9067 4.40234L21.6514 6.54027Z" fill="#AA322F"/>
<path d="M28.9272 7.06836C28.0018 7.29172 27.1243 7.61082 26.3105 7.97778C26.7892 8.23305 27.2679 8.52023 27.7146 8.82337L28.9272 7.06836Z" fill="#AA322F"/>
<path d="M26.4857 10.5938C25.7039 10.9128 24.9699 11.3117 24.2998 11.7744C24.6349 11.9499 24.954 12.1414 25.2571 12.3488L26.4857 10.5938Z" fill="#AA322F"/>
<path d="M21.0135 17.344C21.1571 16.642 21.2369 15.9081 21.205 15.1582C20.838 15.8123 20.5668 16.4824 20.3594 17.1844C20.5987 17.2164 20.8061 17.2642 21.0135 17.344Z" fill="#AA322F"/>
<path d="M21.6043 17.664C21.9235 17.0098 22.1468 16.3078 22.3064 15.5898C21.7958 16.1323 21.365 16.7226 20.998 17.3449C21.2214 17.4246 21.4129 17.5363 21.6043 17.664Z" fill="#AA322F"/>
<path d="M22.306 15.5895C22.4656 14.8715 22.5453 14.1057 22.5294 13.3398C22.0028 13.9142 21.5721 14.5205 21.2051 15.1746C21.588 15.2544 21.955 15.398 22.306 15.5895Z" fill="#AA322F"/>
<path d="M22.5295 13.3391C22.5135 12.5733 22.4178 11.7915 22.2263 11.0098C21.6998 11.616 21.2371 12.2702 20.8701 12.9403C21.4445 13.0041 22.0029 13.1317 22.5295 13.3391Z" fill="#AA322F"/>
<path d="M24.0451 14.1383C24.2206 13.3884 24.3003 12.6067 24.3003 11.793C23.6302 12.2557 23.0399 12.7662 22.5293 13.3406C23.0558 13.532 23.5664 13.8033 24.0451 14.1383Z" fill="#AA322F"/>
<path d="M20.6143 15.0634C20.8217 15.0793 21.0131 15.1272 21.2046 15.1751C21.1886 14.4411 21.077 13.6753 20.8695 12.9414L20.6143 15.0634Z" fill="#AA322F"/>
<path d="M24.0448 14.1367C23.4066 14.5675 22.8162 15.0461 22.3057 15.5886C22.4812 15.6843 22.6567 15.7801 22.8162 15.9077L24.0448 14.1367Z" fill="#AA322F"/>
<path d="M34.7027 9.86022C34.8782 8.85508 34.9739 7.81802 34.9739 6.73311C33.9049 6.60547 32.8519 6.57356 31.8467 6.63738C32.9157 7.59466 33.889 8.67958 34.7027 9.86022Z" fill="#AA322F"/>
<path d="M30.1553 5.29831C30.7456 5.71313 31.32 6.15986 31.8465 6.62255C31.7827 5.61741 31.6232 4.58035 31.3679 3.52734L30.1553 5.29831Z" fill="#AA322F"/>
<path d="M37.7187 10.7069C36.7135 10.324 35.6924 10.0528 34.7031 9.86133C35.118 10.4517 35.4849 11.0739 35.82 11.7121L37.7187 10.7069Z" fill="#AA322F"/>
<path d="M27.6346 14.7431C28.0175 14.0252 28.3206 13.2593 28.544 12.4297C27.6984 12.5573 26.9006 12.7647 26.1348 13.0519C26.7092 13.5625 27.2197 14.1209 27.6346 14.7431Z" fill="#AA322F"/>
<path d="M28.5602 12.4284C28.7836 11.6147 28.9431 10.7372 29.0069 9.84375C28.1294 10.0193 27.2838 10.2745 26.502 10.5936C27.2519 11.1201 27.9379 11.7424 28.5602 12.4284Z" fill="#AA322F"/>
<path d="M30.1242 14.6927C30.539 13.9587 30.89 13.1451 31.1772 12.2995C30.2837 12.2516 29.4062 12.2995 28.5605 12.4271C29.1668 13.1131 29.6934 13.879 30.1242 14.6927Z" fill="#AA322F"/>
<path d="M31.1768 12.3002C31.448 11.4386 31.6554 10.5292 31.7671 9.58789C30.8098 9.58789 29.8844 9.68362 29.0068 9.84317C29.8206 10.5771 30.5545 11.3908 31.1768 12.3002Z" fill="#AA322F"/>
<path d="M31.7668 9.58833C31.8785 8.64701 31.9104 7.65782 31.8466 6.63672C30.8414 6.70054 29.8522 6.84413 28.9268 7.0675C29.9639 7.78546 30.9212 8.63105 31.7668 9.58833Z" fill="#AA322F"/>
<path d="M33.9206 12.6991C34.2556 11.8056 34.5269 10.8483 34.7024 9.85912C33.6972 9.66766 32.7239 9.58789 31.7666 9.58789C32.5963 10.5292 33.3302 11.5822 33.9206 12.6991Z" fill="#AA322F"/>
<path d="M25.2734 12.3644C25.5766 12.5718 25.8797 12.8111 26.151 13.0664C26.3424 12.2846 26.4541 11.455 26.486 10.6094L25.2734 12.3644Z" fill="#AA322F"/>
<path d="M27.7148 8.83933C28.1616 9.14247 28.5924 9.49347 29.0072 9.84447C29.071 8.95101 29.0551 8.00969 28.9434 7.06836L27.7148 8.83933Z" fill="#AA322F"/>
<path d="M33.9211 12.6996C32.9957 12.4763 32.0703 12.3327 31.1768 12.3008C31.4799 12.7475 31.7671 13.2262 32.0224 13.7048L33.9211 12.6996Z" fill="#AA322F"/>
<path d="M30.1235 14.6944C29.2778 14.6146 28.4482 14.6306 27.6504 14.7423C27.8578 15.0454 28.0493 15.3645 28.2248 15.6995L30.1235 14.6944Z" fill="#AA322F"/>
<path d="M22.1297 18.1242C22.5924 17.5658 22.9753 16.9435 23.3104 16.2734C22.6881 16.6723 22.1138 17.135 21.6191 17.6615C21.7946 17.7891 21.9702 17.9487 22.1297 18.1242Z" fill="#AA322F"/>
<path d="M22.5284 18.6993C23.1028 18.2685 23.6453 17.758 24.124 17.1836C23.4219 17.4229 22.7518 17.742 22.1455 18.1249C22.2891 18.3004 22.4167 18.4919 22.5284 18.6993Z" fill="#AA322F"/>
<path d="M24.1086 17.1838C24.5873 16.6094 25.0021 15.9712 25.3372 15.2852C24.6033 15.5404 23.9331 15.8755 23.2949 16.2743C23.614 16.5456 23.8853 16.8487 24.1086 17.1838Z" fill="#AA322F"/>
<path d="M25.3363 15.2841C25.6873 14.5981 25.9586 13.8482 26.15 13.0664C25.4001 13.3536 24.6822 13.7205 24.0439 14.1354C24.5226 14.4545 24.9534 14.8374 25.3363 15.2841Z" fill="#AA322F"/>
<path d="M26.3258 16.7046C26.8204 16.1143 27.2672 15.4601 27.6501 14.7422C26.8523 14.8379 26.0705 15.0294 25.3525 15.2846C25.7195 15.7154 26.0546 16.1941 26.3258 16.7046Z" fill="#AA322F"/>
<path d="M22.832 15.8917C22.9916 16.0034 23.1511 16.1311 23.3107 16.2746C23.6298 15.6045 23.8851 14.8866 24.0606 14.1367L22.832 15.8917Z" fill="#AA322F"/>
<path d="M26.3262 16.7031C25.5603 16.7829 24.8104 16.9424 24.1084 17.1818C24.2201 17.3413 24.3318 17.5168 24.4275 17.6923L26.3262 16.7031Z" fill="#AA322F"/>
<path d="M37.7344 17.854C38.3566 17.0562 38.931 16.1787 39.4256 15.2214C38.5321 14.6152 37.6227 14.0886 36.6973 13.6738C37.2078 15.014 37.5589 16.418 37.7344 17.854Z" fill="#AA322F"/>
<path d="M35.8193 11.6966C36.1544 12.3347 36.4575 12.9889 36.7128 13.659C37.1277 12.7336 37.4627 11.7444 37.734 10.6914L35.8193 11.6966Z" fill="#AA322F"/>
<path d="M40.0004 20.0094C39.2824 19.2116 38.5165 18.4777 37.7188 17.8555C37.7985 18.5734 37.8464 19.2914 37.8464 20.0094H40.0004Z" fill="#AA322F"/>
<path d="M29.215 18.8765C29.8851 18.4139 30.5074 17.8873 31.0977 17.2651C30.3 16.9939 29.4862 16.8024 28.6885 16.7227C28.9438 17.4087 29.1193 18.1267 29.215 18.8765Z" fill="#AA322F"/>
<path d="M31.0973 17.264C31.6876 16.6418 32.2142 15.9557 32.6928 15.1899C31.8312 14.9346 30.9697 14.7751 30.124 14.6953C30.5548 15.509 30.8739 16.3706 31.0973 17.264Z" fill="#AA322F"/>
<path d="M31.4161 20.0079C32.1341 19.5452 32.8202 19.0027 33.4584 18.3645C32.6766 17.9019 31.8788 17.5349 31.0811 17.2637C31.3044 18.1571 31.4161 19.0666 31.4161 20.0079Z" fill="#AA322F"/>
<path d="M33.4752 18.3664C34.1134 17.7442 34.7197 17.0262 35.2622 16.2444C34.4165 15.7977 33.5549 15.4467 32.6934 15.1914C33.0763 16.2125 33.3475 17.2815 33.4752 18.3664Z" fill="#AA322F"/>
<path d="M35.2625 16.2431C35.8049 15.4613 36.2995 14.5998 36.6984 13.6744C35.773 13.2596 34.8476 12.9405 33.9062 12.7012C34.5126 13.818 34.9593 15.0146 35.2625 16.2431Z" fill="#AA322F"/>
<path d="M35.7088 20.0075C36.4268 19.3693 37.0969 18.6513 37.7192 17.8536C36.9214 17.2314 36.0917 16.6889 35.2461 16.2422C35.5652 17.4707 35.7088 18.7311 35.7088 20.0075Z" fill="#AA322F"/>
<path d="M28.2256 15.7001C28.4011 16.0352 28.5447 16.3702 28.6883 16.7212C29.2308 16.1149 29.7094 15.4449 30.1243 14.7109L28.2256 15.7001Z" fill="#AA322F"/>
<path d="M32.0234 13.7063C32.2787 14.185 32.5021 14.6796 32.6936 15.1901C33.1722 14.4243 33.5871 13.5946 33.9221 12.7012L32.0234 13.7063Z" fill="#AA322F"/>
<path d="M35.7087 20.0086C34.9907 19.3704 34.2408 18.8279 33.459 18.3652C33.5228 18.9077 33.5547 19.4502 33.5547 20.0086H35.7087Z" fill="#AA322F"/>
<path d="M31.417 20.0078C30.699 19.5451 29.9651 19.1622 29.1992 18.875C29.2471 19.242 29.263 19.6249 29.263 20.0078H31.417Z" fill="#AA322F"/>
<path d="M22.7527 19.3072C23.4228 19.036 24.061 18.6691 24.6673 18.2383C23.9334 18.3021 23.2154 18.4616 22.5293 18.701C22.625 18.8924 22.7048 19.0998 22.7527 19.3072Z" fill="#AA322F"/>
<path d="M22.8327 20.008C23.5507 19.8803 24.2527 19.6729 24.9388 19.3857C24.2049 19.2741 23.4709 19.2421 22.7529 19.306C22.8168 19.5293 22.8327 19.7527 22.8327 20.008Z" fill="#AA322F"/>
<path d="M24.9542 19.3861C25.6403 19.0989 26.3104 18.732 26.9326 18.2852C26.1668 18.1735 25.4169 18.1576 24.667 18.2374C24.8106 18.6043 24.9063 18.9872 24.9542 19.3861Z" fill="#AA322F"/>
<path d="M26.9335 18.2863C27.5557 17.8395 28.1461 17.313 28.6885 16.7067C27.8908 16.611 27.093 16.611 26.3271 16.6908C26.5824 17.2013 26.7899 17.7438 26.9335 18.2863Z" fill="#AA322F"/>
<path d="M27.1254 20.0083C27.8434 19.7051 28.5454 19.3382 29.1996 18.8755C28.4497 18.5883 27.6838 18.3968 26.918 18.2852C27.0616 18.8436 27.1254 19.4179 27.1254 20.0083Z" fill="#AA322F"/>
<path d="M24.4277 17.6962C24.5235 17.8717 24.6032 18.0472 24.6671 18.2387C25.2734 17.8079 25.8158 17.2814 26.3264 16.707L24.4277 17.6962Z" fill="#AA322F"/>
<path d="M27.1244 20.009C26.4064 19.7058 25.6724 19.5144 24.9385 19.3867C24.9704 19.5941 24.9704 19.7856 24.9704 20.009H27.1244Z" fill="#AA322F"/>
</g>
<defs>
<clipPath id="clip0_928_6322">
<rect width="40" height="40" fill="white"/>
</clipPath>
</defs>
</svg>
