<svg width="56" height="56" viewBox="0 0 56 56" fill="none" xmlns="http://www.w3.org/2000/svg">
<g clip-path="url(#clip0_895_2830)">
<path d="M51.3755 36.8779C52.6711 36.2972 53.9443 35.5601 55.1952 34.7113C54.4804 33.3711 53.6986 32.1426 52.8274 31.0258C52.5817 33.0137 52.0903 34.9793 51.3755 36.8779Z" fill="#F05150"/>
<path d="M53.0068 28.0107C53.0068 29.0158 52.9398 30.021 52.8281 31.0261C53.945 30.155 55.0172 29.1275 56.0224 28.0107H53.0068Z" fill="#F05150"/>
<path d="M52.805 41.0106C52.4476 39.5363 51.9562 38.1515 51.3754 36.856C51.018 37.7941 50.5936 38.7099 50.1245 39.6033L52.805 41.0106Z" fill="#F05150"/>
<path d="M40.1409 32.6117C41.2577 32.4777 42.397 32.232 43.5138 31.8523C42.6873 30.9811 41.8162 30.244 40.878 29.5963C40.7663 30.6238 40.5206 31.6289 40.1409 32.6117Z" fill="#F05150"/>
<path d="M43.5349 31.8299C44.6518 31.4502 45.7687 30.9365 46.8632 30.2887C45.9697 29.4176 44.9868 28.6358 44.004 27.988C43.9817 29.3059 43.8253 30.6014 43.5349 31.8299Z" fill="#F05150"/>
<path d="M42.1729 35.4261C43.3567 35.3144 44.563 35.0911 45.7692 34.7337C45.0991 33.6615 44.3396 32.7011 43.5354 31.8299C43.2227 33.0808 42.776 34.2869 42.1729 35.4261Z" fill="#F05150"/>
<path d="M45.77 34.7337C46.9762 34.3763 48.1825 33.8849 49.3664 33.2595C48.6069 32.165 47.7581 31.1598 46.8646 30.2887C46.6859 31.8299 46.3061 33.3041 45.77 34.7337Z" fill="#F05150"/>
<path d="M49.3665 33.2595C50.5503 32.634 51.7119 31.8969 52.8288 31.0035C51.9576 29.8866 50.9971 28.8815 50.0142 27.988C49.9919 29.775 49.7909 31.5619 49.3665 33.2595Z" fill="#F05150"/>
<path d="M47.49 38.2182C48.7856 37.9055 50.1035 37.4587 51.399 36.8556C50.8183 35.5601 50.1481 34.354 49.3887 33.2595C48.9419 34.9794 48.3165 36.6546 47.49 38.2182Z" fill="#F05150"/>
<path d="M40.989 28.0103C40.989 28.5463 40.9667 29.0601 40.8997 29.5962C41.9495 29.1941 42.9994 28.658 44.0046 28.0103H40.989Z" fill="#F05150"/>
<path d="M46.9985 28.0104C46.9985 28.7698 46.9539 29.5516 46.8645 30.311C47.959 29.6633 49.0089 28.9038 50.0141 28.0104H46.9985Z" fill="#F05150"/>
<path d="M47.4899 38.2182C47.0209 36.9673 46.4401 35.8058 45.77 34.7337C45.5019 35.4484 45.1892 36.1409 44.8318 36.811L47.4899 38.2182Z" fill="#F05150"/>
<path d="M42.1735 35.4261C41.5928 34.3986 40.9003 33.4381 40.1632 32.6117C39.9845 33.1031 39.7611 33.5722 39.5154 34.0412L42.1735 35.4261Z" fill="#F05150"/>
<path d="M31.8538 28.9708C32.8589 29.0602 33.8865 29.0379 34.914 28.8592C33.9535 28.4571 32.9706 28.1667 31.9654 27.988C31.9654 28.3678 31.9431 28.6805 31.8538 28.9708Z" fill="#F05150"/>
<path d="M31.541 29.842C32.5015 30.177 33.5067 30.3781 34.5342 30.4897C33.6854 29.8867 32.7919 29.3729 31.8537 28.9932C31.7867 29.2612 31.675 29.5516 31.541 29.842Z" fill="#F05150"/>
<path d="M34.5334 30.467C35.561 30.5563 36.6332 30.534 37.7054 30.4C36.8342 29.7746 35.896 29.2608 34.9355 28.8588C34.8685 29.4172 34.7345 29.9533 34.5334 30.467Z" fill="#F05150"/>
<path d="M37.7068 30.4004C38.779 30.244 39.8512 29.976 40.901 29.5739C39.9629 28.9262 39.0024 28.4124 37.9972 27.988C37.9748 28.8368 37.8855 29.6409 37.7068 30.4004Z" fill="#F05150"/>
<path d="M36.8574 32.634C37.9296 32.7457 39.0465 32.7457 40.1634 32.6117C39.4039 31.7629 38.5774 31.0258 37.7062 30.4004C37.5052 31.1822 37.2148 31.9193 36.8574 32.634Z" fill="#F05150"/>
<path d="M34.9814 28.0103C34.9814 28.3006 34.9591 28.591 34.9368 28.8814C35.9643 28.725 36.9918 28.4346 37.997 28.0103H34.9814Z" fill="#F05150"/>
<path d="M36.8566 32.6344C36.1642 31.808 35.3824 31.0932 34.5335 30.4678C34.4442 30.7358 34.3325 30.9815 34.1985 31.2272L36.8566 32.6344Z" fill="#F05150"/>
<path d="M44.5854 46.5723C46.015 46.6617 47.4893 46.617 48.9859 46.4383C48.9859 44.8971 48.8519 43.4229 48.6062 41.9933C47.4446 43.6686 46.1044 45.2098 44.5854 46.5723Z" fill="#F05150"/>
<path d="M50.1483 39.6254C49.6793 40.5188 49.1655 41.39 48.5847 42.2164C49.992 41.9484 51.3992 41.5686 52.8065 41.0326L50.1483 39.6254Z" fill="#F05150"/>
<path d="M43.9147 51.0398C44.2721 49.5656 44.4955 48.1137 44.5848 46.7065C43.8253 47.3766 43.0435 48.0021 42.217 48.5605L43.9147 51.0398Z" fill="#F05150"/>
<path d="M36.6118 37.7272C37.6617 38.1293 38.8009 38.4196 39.9848 38.5983C39.672 37.4592 39.2253 36.3647 38.7115 35.3595C38.1084 36.2307 37.3936 37.0348 36.6118 37.7272Z" fill="#F05150"/>
<path d="M39.9839 38.598C41.1678 38.7767 42.3963 38.8437 43.6472 38.7767C43.2675 37.5705 42.7537 36.4537 42.173 35.4262C41.5698 36.5653 40.8327 37.6375 39.9839 38.598Z" fill="#F05150"/>
<path d="M37.0801 41.1667C38.1746 41.6134 39.3585 41.9708 40.5871 42.2165C40.4977 40.9656 40.2743 39.7371 39.9616 38.598C39.1128 39.5584 38.1523 40.4296 37.0801 41.1667Z" fill="#F05150"/>
<path d="M40.5886 42.2165C41.8172 42.4622 43.1128 42.5739 44.453 42.5739C44.2966 41.256 44.0063 39.9828 43.6265 38.7766C42.7777 40.0498 41.7502 41.2113 40.5886 42.2165Z" fill="#F05150"/>
<path d="M44.4749 42.5965C45.8151 42.5965 47.2 42.4625 48.5849 42.2168C48.3392 40.8096 47.9595 39.4917 47.4904 38.2409C46.6639 39.7821 45.6364 41.2563 44.4749 42.5965Z" fill="#F05150"/>
<path d="M40.498 46.1033C41.7936 46.416 43.1562 46.6394 44.5858 46.7064C44.6752 45.2992 44.6305 43.9144 44.4741 42.5742C43.2902 43.9144 41.95 45.0982 40.498 46.1033Z" fill="#F05150"/>
<path d="M39.5165 34.0193C39.2708 34.4884 39.0028 34.9351 38.7124 35.3595C39.8293 35.4936 40.9908 35.5159 42.1747 35.4266L39.5165 34.0193Z" fill="#F05150"/>
<path d="M44.8321 36.8337C44.4747 37.5038 44.0726 38.1739 43.6482 38.7994C44.8991 38.7323 46.1947 38.5537 47.4902 38.2409L44.8321 36.8337Z" fill="#F05150"/>
<path d="M40.499 46.103C40.6554 44.7852 40.6777 43.4673 40.5884 42.2165C40.0076 42.7302 39.4045 43.1993 38.7791 43.6237L40.499 46.103Z" fill="#F05150"/>
<path d="M37.0809 41.167C37.0363 39.9832 36.8799 38.8217 36.6119 37.7272C36.2098 38.0846 35.8077 38.3973 35.3833 38.6877L37.0809 41.167Z" fill="#F05150"/>
<path d="M30.9822 30.6242C31.831 31.1603 32.7692 31.607 33.752 31.942C33.0819 31.1379 32.3448 30.4232 31.5183 29.8201C31.3843 30.1104 31.2056 30.3785 30.9822 30.6242Z" fill="#F05150"/>
<path d="M30.2456 31.2719C30.9381 32.009 31.7422 32.6568 32.6357 33.2152C32.189 32.2771 31.6305 31.406 30.9827 30.6242C30.7594 30.8699 30.5137 31.0932 30.2456 31.2719Z" fill="#F05150"/>
<path d="M32.6125 33.2372C33.4837 33.7956 34.4442 34.2647 35.4717 34.622C34.9803 33.6616 34.4219 32.7681 33.7518 31.964C33.439 32.4107 33.0593 32.8575 32.6125 33.2372Z" fill="#F05150"/>
<path d="M35.4731 34.6224C36.5007 34.9798 37.5729 35.2478 38.6897 35.3819C38.1536 34.3767 37.5505 33.4609 36.8357 32.6345C36.4783 33.3492 36.0092 33.997 35.4731 34.6224Z" fill="#F05150"/>
<path d="M33.6633 36.2306C34.5568 36.8337 35.562 37.3251 36.6119 37.7272C36.3438 36.6327 35.9641 35.5829 35.4727 34.6224C34.9366 35.2255 34.3335 35.7616 33.6633 36.2306Z" fill="#F05150"/>
<path d="M34.1994 31.2273C34.0654 31.473 33.9314 31.7187 33.7527 31.942C34.7355 32.2771 35.7854 32.5005 36.8576 32.6121L34.1994 31.2273Z" fill="#F05150"/>
<path d="M33.6626 36.2303C33.4169 35.1805 33.0818 34.1753 32.6128 33.2372C32.3894 33.4159 32.166 33.5946 31.9426 33.7733L33.6626 36.2303Z" fill="#F05150"/>
<path d="M33.9968 52.2909C35.203 53.028 36.5433 53.6758 37.9506 54.2119C38.643 52.8717 39.2015 51.5091 39.6482 50.1689C37.8389 51.0847 35.9402 51.7995 33.9968 52.2909Z" fill="#F05150"/>
<path d="M42.2179 48.5826C41.3914 49.1634 40.5202 49.6771 39.6267 50.1462C40.9893 50.5706 42.4189 50.861 43.9155 51.062L42.2179 48.5826Z" fill="#F05150"/>
<path d="M31.384 55.7973C32.3892 54.6582 33.2604 53.4967 33.9975 52.2682C33.0146 52.5139 32.0318 52.6926 31.0266 52.8042L31.384 55.7973Z" fill="#F05150"/>
<path d="M31.116 40.6089C31.8531 41.4577 32.7243 42.2395 33.6624 42.9542C33.9081 41.7927 34.0198 40.6312 34.0198 39.5144C33.104 39.9835 32.1212 40.3632 31.116 40.6089Z" fill="#F05150"/>
<path d="M33.6843 42.9542C34.6448 43.669 35.6947 44.2944 36.8339 44.8305C37.0349 43.5796 37.1243 42.3511 37.0796 41.1673C36.0298 41.9044 34.8682 42.5075 33.6843 42.9542Z" fill="#F05150"/>
<path d="M29.9539 43.87C30.7133 44.7858 31.5845 45.6569 32.5673 46.4387C33.0588 45.2772 33.4385 44.1157 33.6842 42.9542C32.478 43.4233 31.2271 43.7137 29.9539 43.87Z" fill="#F05150"/>
<path d="M32.5449 46.4387C33.5278 47.2205 34.6223 47.9353 35.8062 48.5607C36.2753 47.3099 36.6103 46.059 36.8337 44.8082C35.4711 45.5453 34.0415 46.0814 32.5449 46.4387Z" fill="#F05150"/>
<path d="M35.8059 48.5828C36.9898 49.2082 38.263 49.7443 39.6256 50.1463C40.05 48.7838 40.3404 47.4436 40.4968 46.1034C39.0448 47.1085 37.4589 47.9573 35.8059 48.5828Z" fill="#F05150"/>
<path d="M30.6682 49.8336C31.6734 50.7271 32.7903 51.5535 33.9965 52.2683C34.7336 51.0621 35.3367 49.8113 35.8058 48.5604C34.1529 49.2082 32.4105 49.6326 30.6682 49.8336Z" fill="#F05150"/>
<path d="M35.3818 38.688C34.9573 38.9783 34.5106 39.2464 34.0415 39.4921C34.9797 40.1398 35.9849 40.6982 37.1017 41.145L35.3818 38.688Z" fill="#F05150"/>
<path d="M38.7994 43.6467C38.174 44.0711 37.5039 44.4731 36.8337 44.8305C37.973 45.3666 39.2015 45.791 40.4971 46.1037L38.7994 43.6467Z" fill="#F05150"/>
<path d="M30.6682 49.8342C31.4277 48.7397 32.0531 47.6006 32.5669 46.4391C31.8297 46.6177 31.0703 46.7518 30.3108 46.8411L30.6682 49.8342Z" fill="#F05150"/>
<path d="M29.9538 43.87C30.4676 42.7979 30.8697 41.7034 31.1377 40.6089C30.624 40.7429 30.1102 40.8323 29.5964 40.8993L29.9538 43.87Z" fill="#F05150"/>
<path d="M29.4185 31.7186C29.9099 32.5897 30.5353 33.4385 31.2501 34.1756C31.0268 33.1481 30.6917 32.1876 30.2673 31.2718C29.9769 31.4728 29.6865 31.6069 29.4185 31.7186Z" fill="#F05150"/>
<path d="M28.5027 31.9419C28.7707 32.9247 29.1728 33.8628 29.6866 34.7786C29.7089 33.7512 29.6196 32.7237 29.4185 31.7185C29.1281 31.8302 28.8377 31.8972 28.5027 31.9419Z" fill="#F05150"/>
<path d="M29.687 34.7784C30.2008 35.6942 30.8039 36.5429 31.541 37.3471C31.5634 36.2749 31.4517 35.2027 31.2283 34.1976C30.7369 34.4433 30.2231 34.6443 29.687 34.7784Z" fill="#F05150"/>
<path d="M31.5396 37.3473C32.2767 38.1514 33.1032 38.8662 34.019 39.5139C34.019 38.3747 33.885 37.2803 33.6616 36.2304C32.9915 36.6772 32.2767 37.0569 31.5396 37.3473Z" fill="#F05150"/>
<path d="M29.217 37.9057C29.7308 38.8438 30.3786 39.7596 31.1157 40.6084C31.3838 39.5139 31.5178 38.4194 31.5401 37.3473C30.803 37.6153 30.0212 37.8163 29.217 37.9057Z" fill="#F05150"/>
<path d="M31.9433 33.7516C31.7199 33.9079 31.4742 34.0643 31.2285 34.1983C31.9433 34.9577 32.7475 35.6278 33.6633 36.2309L31.9433 33.7516Z" fill="#F05150"/>
<path d="M29.2175 37.9058C29.5079 36.856 29.6419 35.8061 29.6866 34.7787C29.4185 34.8457 29.1505 34.8903 28.8601 34.935L29.2175 37.9058Z" fill="#F05150"/>
<path d="M22.0254 52.2906C22.7625 53.4968 23.6337 54.6807 24.6389 55.8198C25.8674 54.971 27.0066 54.0106 28.0118 53.0278C26.0015 53.0054 23.9687 52.7597 22.0254 52.2906Z" fill="#F05150"/>
<path d="M31.0275 52.8264C30.0223 52.9381 29.0171 53.0051 28.012 53.0051C29.0171 54.0103 30.1564 54.9484 31.3849 55.7972L31.0275 52.8264Z" fill="#F05150"/>
<path d="M18.071 54.1891C19.4783 53.653 20.7962 53.0053 22.0248 52.2682C21.0419 52.0225 20.0814 51.7321 19.1432 51.3747L18.071 54.1891Z" fill="#F05150"/>
<path d="M24.884 40.6085C25.1521 41.703 25.5318 42.7974 26.0679 43.8696C26.8274 42.9538 27.4752 41.971 28.0113 40.9882C26.9391 40.9882 25.8892 40.8542 24.884 40.6085Z" fill="#F05150"/>
<path d="M26.0679 43.8696C26.5816 44.9418 27.2294 45.9916 28.0112 46.9967C28.7707 45.9916 29.4408 44.9418 29.9546 43.8696C28.659 44.026 27.3411 44.026 26.0679 43.8696Z" fill="#F05150"/>
<path d="M22.3374 42.9538C22.5831 44.1153 22.9629 45.2768 23.4543 46.4383C24.4371 45.6565 25.3083 44.7854 26.0678 43.8696C24.7945 43.7132 23.5436 43.4229 22.3374 42.9538Z" fill="#F05150"/>
<path d="M23.4539 46.4387C23.9453 47.6002 24.5931 48.7393 25.3525 49.8338C26.3577 48.9404 27.2289 47.9799 28.0107 46.9971C26.4694 46.9971 24.9281 46.8184 23.4539 46.4387Z" fill="#F05150"/>
<path d="M25.3525 49.8336C26.112 50.9281 27.0055 52.0002 28.0107 53.0054C29.0159 52.0002 29.9094 50.9504 30.6689 49.8336C28.9042 50.057 27.1172 50.057 25.3525 49.8336Z" fill="#F05150"/>
<path d="M20.1931 48.5826C20.6622 49.8335 21.2653 51.0843 22.0024 52.2905C23.2087 51.5534 24.3255 50.7269 25.3307 49.8558C23.5884 49.6324 21.8684 49.208 20.1931 48.5826Z" fill="#F05150"/>
<path d="M29.5755 40.899C29.0617 40.9661 28.5256 40.9884 27.9895 40.9884C28.5256 41.9935 29.1734 42.954 29.9329 43.8698L29.5755 40.899Z" fill="#F05150"/>
<path d="M30.3125 46.8625C29.553 46.9519 28.7935 46.9966 28.0117 46.9966C28.7712 48.0017 29.6647 48.9622 30.6699 49.8333L30.3125 46.8625Z" fill="#F05150"/>
<path d="M20.1931 48.5826C21.377 47.9572 22.4715 47.2424 23.4544 46.4607C22.7172 46.282 21.9801 46.0586 21.2653 45.7906L20.1931 48.5826Z" fill="#F05150"/>
<path d="M22.3374 42.9538C23.2979 42.239 24.1467 41.4573 24.8839 40.6085C24.3701 40.4745 23.8787 40.3404 23.3873 40.1394L22.3374 42.9538Z" fill="#F05150"/>
<path d="M27.4958 31.9416C27.5405 32.9467 27.6969 33.9742 28.0096 34.9793C28.3 33.9742 28.4787 32.969 28.5234 31.9416C28.1883 31.9862 27.8086 31.9862 27.4958 31.9416Z" fill="#F05150"/>
<path d="M26.603 31.7185C26.402 32.7013 26.2903 33.7288 26.335 34.7786C26.8487 33.8628 27.2285 32.9247 27.5189 31.9419C27.1838 31.8972 26.8934 31.8302 26.603 31.7185Z" fill="#F05150"/>
<path d="M26.3127 34.7787C26.3351 35.8061 26.4914 36.8783 26.7818 37.9058C27.2956 36.9676 27.6977 35.9848 28.0104 34.9797C27.4073 34.9797 26.8488 34.9127 26.3127 34.7787Z" fill="#F05150"/>
<path d="M26.7812 37.9062C27.0716 38.956 27.4737 39.9835 28.0098 40.9886C28.5459 39.9835 28.948 38.956 29.2384 37.9062C28.4342 37.9955 27.5854 37.9955 26.7812 37.9062Z" fill="#F05150"/>
<path d="M24.4587 37.3474C24.4811 38.4195 24.6151 39.514 24.8832 40.6085C25.6203 39.7597 26.2681 38.8439 26.7818 37.9058C25.9777 37.8164 25.2182 37.6154 24.4587 37.3474Z" fill="#F05150"/>
<path d="M28.8592 34.935C28.5688 34.9797 28.3008 34.9797 27.988 34.9797C28.2784 35.9848 28.6805 36.9676 29.2166 37.9058L28.8592 34.935Z" fill="#F05150"/>
<path d="M24.4587 37.3473C25.1959 36.5432 25.799 35.6944 26.3127 34.7786C26.0447 34.7116 25.7767 34.6223 25.5309 34.5329L24.4587 37.3473Z" fill="#F05150"/>
<path d="M11.4368 46.7064C11.5261 48.1136 11.7495 49.5654 12.1069 51.0397C13.6035 50.861 15.0331 50.5482 16.3957 50.1239C14.6087 49.2081 12.9334 48.0466 11.4368 46.7064Z" fill="#F05150"/>
<path d="M19.1433 51.3747C18.2051 51.0173 17.2893 50.5929 16.3958 50.1238C16.8202 51.4864 17.3786 52.8266 18.0934 54.1668L19.1433 51.3747Z" fill="#F05150"/>
<path d="M7.03638 46.5724C8.53299 46.7511 10.0073 46.7957 11.4145 46.7064C10.655 46.0363 9.94025 45.3215 9.27012 44.5621L7.03638 46.5724Z" fill="#F05150"/>
<path d="M19.3875 37.7272C19.1195 38.8217 18.9631 39.9832 18.9185 41.167C20.013 40.7203 21.0405 40.1619 21.9787 39.5141C21.0629 39.0227 20.1917 38.4196 19.3875 37.7272Z" fill="#F05150"/>
<path d="M18.918 41.1669C18.8733 42.3507 18.9627 43.5792 19.1637 44.8301C20.3029 44.294 21.3528 43.6686 22.3133 42.9538C21.1294 42.5071 19.9902 41.904 18.918 41.1669Z" fill="#F05150"/>
<path d="M16.0373 38.5983C15.7246 39.7375 15.5012 40.966 15.4119 42.2168C16.6404 41.9711 17.8243 41.6137 18.9188 41.167C17.869 40.4299 16.8861 39.5588 16.0373 38.5983Z" fill="#F05150"/>
<path d="M15.4126 42.2167C15.3233 43.4675 15.3456 44.7854 15.502 46.1032C16.7975 45.7905 18.0261 45.3438 19.1653 44.8301C17.8251 44.1153 16.5518 43.2442 15.4126 42.2167Z" fill="#F05150"/>
<path d="M15.5005 46.1034C15.6569 47.4212 15.9472 48.7838 16.3716 50.1463C17.7342 49.7219 19.0075 49.2081 20.1914 48.5827C18.5384 47.9573 16.9748 47.1085 15.5005 46.1034Z" fill="#F05150"/>
<path d="M11.5476 42.5965C11.3912 43.9144 11.3466 45.2992 11.4359 46.7288C12.8655 46.6394 14.2281 46.4384 15.5237 46.1257C14.0494 45.0982 12.7092 43.9144 11.5476 42.5965Z" fill="#F05150"/>
<path d="M23.4088 40.1395C22.9174 39.9608 22.4483 39.7375 21.9792 39.4918C21.9792 40.6309 22.0909 41.7701 22.3366 42.9316L23.4088 40.1395Z" fill="#F05150"/>
<path d="M21.2644 45.7683C20.5496 45.5003 19.8571 45.1876 19.187 44.8302C19.388 46.081 19.7454 47.3319 20.2145 48.5827L21.2644 45.7683Z" fill="#F05150"/>
<path d="M11.5476 42.5965C12.8879 42.5965 14.1834 42.4625 15.412 42.2392C14.8312 41.7254 14.2951 41.1893 13.7814 40.6086L11.5476 42.5965Z" fill="#F05150"/>
<path d="M16.0374 38.5983C17.2212 38.4196 18.3381 38.1292 19.4103 37.7272C19.0082 37.3698 18.6508 37.0124 18.2934 36.6104L16.0374 38.5983Z" fill="#F05150"/>
<path d="M25.7541 31.2719C25.3073 32.1876 24.9946 33.1705 24.7712 34.1756C25.486 33.4162 26.0891 32.5897 26.6029 31.7186C26.3125 31.6069 26.0221 31.4729 25.7541 31.2719Z" fill="#F05150"/>
<path d="M25.0399 30.6241C24.3921 31.4059 23.856 32.2771 23.387 33.2152C24.2581 32.6568 25.0623 32.009 25.7771 31.2719C25.509 31.0932 25.241 30.8698 25.0399 30.6241Z" fill="#F05150"/>
<path d="M23.3858 33.2372C22.939 34.1753 22.5816 35.1805 22.3359 36.2303C23.2294 35.6272 24.0559 34.9571 24.7707 34.1977C24.2793 33.9296 23.8102 33.5946 23.3858 33.2372Z" fill="#F05150"/>
<path d="M22.3364 36.2306C22.0907 37.2804 21.979 38.3749 21.979 39.5141C22.9172 38.8663 23.7437 38.1515 24.4585 37.3474C23.7213 37.057 23.0065 36.6773 22.3364 36.2306Z" fill="#F05150"/>
<path d="M20.5271 34.6224C20.0357 35.5828 19.656 36.6327 19.3879 37.7272C20.4378 37.3251 21.443 36.8114 22.3365 36.2306C21.6887 35.7615 21.0632 35.2255 20.5271 34.6224Z" fill="#F05150"/>
<path d="M25.5301 34.5327C25.262 34.4433 25.0163 34.3317 24.7706 34.1976C24.5472 35.2028 24.4355 36.2749 24.4579 37.3471L25.5301 34.5327Z" fill="#F05150"/>
<path d="M20.5278 34.6227C21.5554 34.2653 22.4935 33.7963 23.387 33.2379C23.1637 33.0592 22.9626 32.8358 22.7839 32.6348L20.5278 34.6227Z" fill="#F05150"/>
<path d="M4.62393 36.8783C4.04316 38.1738 3.57407 39.5587 3.19434 41.0329C4.6016 41.5689 6.03119 41.9487 7.41612 42.2167C6.27691 40.5415 5.33873 38.7545 4.62393 36.8783Z" fill="#F05150"/>
<path d="M9.29185 44.5847C8.62173 43.8253 7.99628 43.0435 7.43784 42.217C7.19213 43.6242 7.05811 45.0761 7.05811 46.595L9.29185 44.5847Z" fill="#F05150"/>
<path d="M0.804932 34.7116C2.05583 35.5604 3.32906 36.2975 4.62464 36.8782C4.26724 35.9401 3.97685 34.9796 3.73114 33.9968L0.804932 34.7116Z" fill="#F05150"/>
<path d="M15.8602 32.6124C15.1008 33.4612 14.4306 34.3993 13.8499 35.4268C15.0337 35.5385 16.1953 35.5162 17.3122 35.3598C16.709 34.511 16.2176 33.5729 15.8602 32.6124Z" fill="#F05150"/>
<path d="M13.8505 35.4272C13.2697 36.4547 12.7783 37.5939 12.3762 38.7777C13.6271 38.8447 14.8557 38.7777 16.0396 38.599C15.1907 37.6385 14.4313 36.5664 13.8505 35.4272Z" fill="#F05150"/>
<path d="M12.4874 31.8307C11.6609 32.7018 10.9238 33.6623 10.2537 34.7344C11.4599 35.0918 12.6661 35.3152 13.85 35.4268C13.2469 34.2877 12.7778 33.0815 12.4874 31.8307Z" fill="#F05150"/>
<path d="M10.2307 34.7342C9.5606 35.8064 8.97983 36.9679 8.51074 38.2187C9.80631 38.5314 11.1019 38.7325 12.3528 38.7771C11.504 37.5263 10.7892 36.1638 10.2307 34.7342Z" fill="#F05150"/>
<path d="M8.5335 38.2189C8.06441 39.4697 7.68468 40.8099 7.43896 42.1948C8.84622 42.4628 10.2088 42.5745 11.5491 42.5745C10.3652 41.2567 9.33765 39.7825 8.5335 38.2189Z" fill="#F05150"/>
<path d="M6.63488 33.2825C5.87541 34.377 5.18295 35.5832 4.62451 36.8787C5.92008 37.4595 7.21566 37.9062 8.53357 38.2412C7.70708 36.6553 7.05929 34.9801 6.63488 33.2825Z" fill="#F05150"/>
<path d="M18.2951 36.6107C17.9377 36.2086 17.625 35.8065 17.3123 35.3821C16.7762 36.3873 16.3518 37.4594 16.0391 38.6209L18.2951 36.6107Z" fill="#F05150"/>
<path d="M13.7828 40.5866C13.2691 40.0058 12.8 39.4027 12.3756 38.7773C11.9958 39.9835 11.7054 41.2567 11.5491 42.5745L13.7828 40.5866Z" fill="#F05150"/>
<path d="M6.63428 33.2823C7.81816 33.9077 9.02438 34.3991 10.2306 34.7565C9.96256 34.0417 9.73918 33.3046 9.56048 32.5675L6.63428 33.2823Z" fill="#F05150"/>
<path d="M12.4873 31.8306C13.6042 32.2104 14.7434 32.4784 15.8603 32.5901C15.6816 32.0987 15.5252 31.6073 15.3912 31.0935L12.4873 31.8306Z" fill="#F05150"/>
<path d="M24.483 29.8423C23.6789 30.4454 22.9194 31.1601 22.2493 31.9643C23.2321 31.6292 24.1703 31.1825 25.0191 30.6464C24.8181 30.3784 24.617 30.1103 24.483 29.8423Z" fill="#F05150"/>
<path d="M24.1488 28.9716C23.2106 29.3513 22.3171 29.865 21.4683 30.4681C22.4958 30.3788 23.501 30.1554 24.4615 29.8203C24.3275 29.5523 24.2158 29.2619 24.1488 28.9716Z" fill="#F05150"/>
<path d="M21.4894 30.4678C20.6405 31.0709 19.8811 31.808 19.1663 32.6344C20.2385 32.5227 21.2883 32.2994 22.2712 31.9643C21.9361 31.4953 21.6681 30.9815 21.4894 30.4678Z" fill="#F05150"/>
<path d="M19.1677 32.6347C18.4753 33.4612 17.8498 34.377 17.3137 35.3821C18.4306 35.2481 19.5251 34.9801 20.5303 34.6227C19.9942 33.9973 19.5251 33.3495 19.1677 32.6347Z" fill="#F05150"/>
<path d="M18.3182 30.4011C17.447 31.0265 16.6206 31.7636 15.8611 32.6124C16.978 32.7464 18.0948 32.7464 19.167 32.6347C18.7873 31.92 18.4969 31.1829 18.3182 30.4011Z" fill="#F05150"/>
<path d="M22.7856 32.6124C22.6069 32.3891 22.4282 32.1657 22.2495 31.9423C21.5794 32.7464 20.9986 33.6399 20.5295 34.6004L22.7856 32.6124Z" fill="#F05150"/>
<path d="M18.3181 30.4011C19.3903 30.5575 20.4402 30.5798 21.49 30.4681C21.4007 30.2001 21.3113 29.9544 21.2443 29.6863L18.3181 30.4011Z" fill="#F05150"/>
<path d="M3.19426 24.9952C2.07738 25.8664 1.00519 26.8938 0 28.0107C1.00519 29.1275 2.07738 30.155 3.19426 31.0261C2.94854 29.0158 2.94854 26.9832 3.19426 24.9952Z" fill="#F05150"/>
<path d="M3.73102 33.9965C3.48531 33.0137 3.30661 32.0309 3.19492 31.0258C2.32376 32.1426 1.51961 33.3711 0.827148 34.7113L3.73102 33.9965Z" fill="#F05150"/>
<path d="M0.804932 21.3093C1.51973 22.6495 2.30154 23.878 3.1727 24.9949C3.28439 23.9897 3.46309 23.0069 3.7088 22.0241L0.804932 21.3093Z" fill="#F05150"/>
<path d="M15.1225 26.4248C14.0726 26.8268 13.0228 27.3629 12.0176 28.0107C13.0228 28.6584 14.0503 29.1945 15.1225 29.5966C14.9885 28.5467 14.9885 27.4523 15.1225 26.4248Z" fill="#F05150"/>
<path d="M12.0174 28.0107C11.0122 28.6584 10.0517 29.4179 9.1582 30.3113C10.2527 30.9591 11.3696 31.4728 12.4865 31.8526C12.1738 30.6017 12.0174 29.3062 12.0174 28.0107Z" fill="#F05150"/>
<path d="M12.4865 24.1688C11.3696 24.5485 10.2527 25.0623 9.1582 25.71C10.0517 26.5811 11.0345 27.3629 12.0174 28.0107C12.0174 26.6928 12.1738 25.4196 12.4865 24.1688Z" fill="#F05150"/>
<path d="M9.15837 25.71C8.06384 26.3578 7.01397 27.1172 6.00879 28.0107C7.01397 28.9041 8.06384 29.6636 9.15837 30.3114C8.95733 28.7925 8.95733 27.2289 9.15837 25.71Z" fill="#F05150"/>
<path d="M6.00861 28.0107C5.00343 28.9041 4.06525 29.9093 3.19409 31.0261C4.31096 31.8972 5.47251 32.6567 6.6564 33.2821C6.23199 31.5622 6.00861 29.7753 6.00861 28.0107Z" fill="#F05150"/>
<path d="M6.63418 22.7393C5.4503 23.3647 4.28875 24.1018 3.17188 24.9952C4.04304 26.1121 5.00355 27.1172 5.9864 28.0107C6.00873 26.2238 6.23211 24.4592 6.63418 22.7393Z" fill="#F05150"/>
<path d="M15.3898 31.1156C15.2558 30.6018 15.1665 30.0881 15.0994 29.5743C14.1613 30.2221 13.2901 30.9592 12.4636 31.8303L15.3898 31.1156Z" fill="#F05150"/>
<path d="M9.56036 32.545C9.38166 31.8079 9.24764 31.0484 9.15829 30.289C8.26479 31.1601 7.41597 32.1653 6.65649 33.2598L9.56036 32.545Z" fill="#F05150"/>
<path d="M6.63428 22.7393C7.39375 23.8337 8.24257 24.8389 9.13607 25.71C9.22542 24.9506 9.35945 24.1911 9.53815 23.454L6.63428 22.7393Z" fill="#F05150"/>
<path d="M12.4858 24.1688C13.3123 25.0399 14.1835 25.7771 15.1217 26.4248C15.1887 25.9111 15.278 25.3973 15.412 24.8836L12.4858 24.1688Z" fill="#F05150"/>
<path d="M24.035 28.0107C23.0298 28.1893 22.0469 28.4797 21.0864 28.8818C22.1139 29.0381 23.1415 29.0828 24.1467 28.9935C24.0796 28.6807 24.035 28.368 24.035 28.0107Z" fill="#F05150"/>
<path d="M24.1467 27.0279C23.1415 26.9385 22.1139 26.9608 21.0864 27.1395C22.0469 27.5416 23.0298 27.832 24.035 28.0107C24.035 27.6533 24.0796 27.3406 24.1467 27.0279Z" fill="#F05150"/>
<path d="M21.0864 27.1396C20.0588 27.2959 19.0313 27.5863 18.0261 28.0107C19.0313 28.4351 20.0588 28.7031 21.0864 28.8818C21.0193 28.3234 21.0193 27.698 21.0864 27.1396Z" fill="#F05150"/>
<path d="M18.0262 28.0107C17.021 28.4351 16.0382 28.9488 15.1223 29.5966C16.1722 29.9986 17.2444 30.2667 18.3166 30.423C18.1155 29.6412 18.0262 28.8371 18.0262 28.0107Z" fill="#F05150"/>
<path d="M18.3166 25.5983C17.2444 25.7547 16.1722 26.0227 15.1223 26.4248C16.0605 27.0725 17.0433 27.5863 18.0262 28.0107C18.0262 27.1842 18.1155 26.3801 18.3166 25.5983Z" fill="#F05150"/>
<path d="M21.2429 29.6859C21.1758 29.4179 21.1312 29.1498 21.0865 28.8595C20.126 29.2615 19.1878 29.7753 18.3167 30.4007L21.2429 29.6859Z" fill="#F05150"/>
<path d="M18.3167 25.5983C19.1878 26.2238 20.126 26.7375 21.0865 27.1395C21.1088 26.8492 21.1758 26.5811 21.2429 26.3131L18.3167 25.5983Z" fill="#F05150"/>
<path d="M7.43845 13.8046C6.03119 14.0503 4.62393 14.4524 3.19434 14.9885C3.55174 16.4627 4.04316 17.8475 4.6016 19.1431C5.33873 17.2445 6.2769 15.4575 7.43845 13.8046Z" fill="#F05150"/>
<path d="M3.73114 22.0246C3.97685 21.0418 4.26724 20.0813 4.62464 19.1432C3.32906 19.7239 2.05583 20.461 0.804932 21.3098L3.73114 22.0246Z" fill="#F05150"/>
<path d="M7.03638 9.42667C7.03638 10.9456 7.1704 12.3974 7.41611 13.8046C7.99689 12.9782 8.62234 12.1741 9.27012 11.437L7.03638 9.42667Z" fill="#F05150"/>
<path d="M17.3122 20.6396C16.1953 20.5056 15.0337 20.4833 13.8499 20.5726C14.4306 21.6001 15.1231 22.5606 15.8602 23.387C16.2176 22.4266 16.709 21.4884 17.3122 20.6396Z" fill="#F05150"/>
<path d="M13.85 20.5726C12.6661 20.6843 11.4599 20.9077 10.2537 21.2651C10.9238 22.3372 11.6609 23.2977 12.4874 24.1688C12.7778 22.918 13.2469 21.7118 13.85 20.5726Z" fill="#F05150"/>
<path d="M16.0396 17.4008C14.8557 17.2221 13.6271 17.1551 12.3762 17.2221C12.756 18.4283 13.2697 19.5451 13.8505 20.5726C14.4313 19.4335 15.1907 18.3613 16.0396 17.4008Z" fill="#F05150"/>
<path d="M12.375 17.2223C11.1241 17.2893 9.82853 17.468 8.53296 17.7807C9.00205 19.0316 9.58282 20.1931 10.2529 21.2652C10.789 19.8357 11.5038 18.4731 12.375 17.2223Z" fill="#F05150"/>
<path d="M8.53357 17.7805C7.23799 18.0933 5.92008 18.54 4.62451 19.1431C5.20529 20.4386 5.87541 21.6448 6.63488 22.7393C7.05929 21.0193 7.70708 19.3441 8.53357 17.7805Z" fill="#F05150"/>
<path d="M11.5491 13.4249C10.2088 13.4249 8.82389 13.5589 7.43896 13.8046C7.68468 15.2119 8.06441 16.5297 8.5335 17.7806C9.33765 16.217 10.3652 14.7428 11.5491 13.4249Z" fill="#F05150"/>
<path d="M15.3912 24.8836C15.5252 24.3698 15.6592 23.8784 15.8603 23.387C14.7434 23.521 13.6042 23.7667 12.4873 24.1465L15.3912 24.8836Z" fill="#F05150"/>
<path d="M9.56048 23.4539C9.73918 22.7168 9.96256 21.9797 10.2306 21.2649C9.02438 21.6223 7.81816 22.1137 6.63428 22.7391L9.56048 23.4539Z" fill="#F05150"/>
<path d="M11.5491 13.4249C11.7054 14.7428 11.9958 16.016 12.3756 17.2221C12.8 16.5967 13.2914 15.9936 13.7828 15.4129L11.5491 13.4249Z" fill="#F05150"/>
<path d="M16.0391 17.4008C16.3518 18.54 16.7985 19.6345 17.3123 20.6396C17.6027 20.2152 17.9377 19.7908 18.2951 19.4111L16.0391 17.4008Z" fill="#F05150"/>
<path d="M24.4835 26.1789C23.5229 25.8438 22.5178 25.6428 21.4902 25.5311C22.3391 26.1342 23.2326 26.6479 24.1707 27.0276C24.2154 26.7373 24.3271 26.4469 24.4835 26.1789Z" fill="#F05150"/>
<path d="M25.0411 25.3747C24.1923 24.8387 23.2541 24.3919 22.2712 24.0569C22.9414 24.861 23.6785 25.5758 24.505 26.1789C24.6167 25.8885 24.8177 25.6204 25.0411 25.3747Z" fill="#F05150"/>
<path d="M22.2489 24.0567C21.2661 23.7216 20.2162 23.4983 19.144 23.3866C19.8365 24.213 20.6183 24.9278 21.4671 25.5309C21.6682 25.0172 21.9362 24.5258 22.2489 24.0567Z" fill="#F05150"/>
<path d="M19.167 23.3868C18.0948 23.2751 16.978 23.2751 15.8611 23.4091C16.6206 24.2579 17.447 24.995 18.3182 25.6204C18.4969 24.8387 18.7873 24.0792 19.167 23.3868Z" fill="#F05150"/>
<path d="M20.5303 21.3988C19.5028 21.0415 18.4306 20.7734 17.3137 20.6394C17.8498 21.6445 18.4529 22.5603 19.1677 23.3868C19.5251 22.672 19.9942 22.0019 20.5303 21.3988Z" fill="#F05150"/>
<path d="M21.2443 26.3129C21.3113 26.0449 21.4007 25.7768 21.49 25.5311C20.4625 25.4418 19.3903 25.4641 18.3181 25.5981L21.2443 26.3129Z" fill="#F05150"/>
<path d="M20.5295 21.3988C21.021 22.3593 21.5794 23.2528 22.2495 24.0569C22.4059 23.8335 22.5846 23.6102 22.7856 23.3868L20.5295 21.3988Z" fill="#F05150"/>
<path d="M16.3957 5.85281C15.0331 5.42842 13.6035 5.13804 12.1069 4.93701C11.7495 6.41122 11.5261 7.8631 11.4368 9.2703C12.9334 7.95244 14.6087 6.79094 16.3957 5.85281Z" fill="#F05150"/>
<path d="M9.29185 11.4372C9.96197 10.6777 10.6768 9.96294 11.4362 9.29284C10.029 9.2035 8.55472 9.24817 7.05811 9.42686L9.29185 11.4372Z" fill="#F05150"/>
<path d="M18.0714 1.80981C17.379 3.15001 16.8205 4.51254 16.3738 5.85273C17.2673 5.38366 18.1831 4.95927 19.1213 4.60188L18.0714 1.80981Z" fill="#F05150"/>
<path d="M21.9787 16.5074C21.0405 15.8596 20.0353 15.3012 18.9185 14.8545C18.9631 16.0383 19.1195 17.1998 19.3875 18.2943C20.1917 17.5796 21.0629 16.9765 21.9787 16.5074Z" fill="#F05150"/>
<path d="M18.9186 14.8323C17.8241 14.3855 16.6402 14.0281 15.4116 13.7824C15.501 15.0333 15.7243 16.2618 16.0371 17.401C16.8859 16.4405 17.8687 15.5694 18.9186 14.8323Z" fill="#F05150"/>
<path d="M22.337 13.0453C21.3765 12.3306 20.3266 11.7051 19.1874 11.1691C18.9864 12.4199 18.897 13.6484 18.9417 14.8323C19.9916 14.1175 21.1308 13.5144 22.337 13.0453Z" fill="#F05150"/>
<path d="M19.187 11.1916C18.0478 10.6555 16.8193 10.2311 15.5237 9.9184C15.3673 11.2363 15.345 12.5541 15.4343 13.805C16.5512 12.7775 17.8244 11.884 19.187 11.1916Z" fill="#F05150"/>
<path d="M15.5015 9.89606C14.2059 9.58334 12.8433 9.35998 11.4137 9.29297C11.3244 10.7002 11.369 12.085 11.5254 13.4252C12.7093 12.085 14.0495 10.9012 15.5015 9.89606Z" fill="#F05150"/>
<path d="M20.1931 7.43905C19.0092 6.81362 17.7359 6.27755 16.3734 5.87549C15.9489 7.23802 15.6586 8.57821 15.5022 9.9184C16.9765 8.89092 18.5401 8.06447 20.1931 7.43905Z" fill="#F05150"/>
<path d="M18.2932 19.3888C18.6506 18.9868 19.008 18.6294 19.4101 18.272C18.3602 17.8699 17.221 17.5796 16.0371 17.4009L18.2932 19.3888Z" fill="#F05150"/>
<path d="M13.7816 15.4132C14.2954 14.8324 14.8315 14.2964 15.4122 13.7826C14.1837 13.5369 12.8881 13.4252 11.5479 13.4252L13.7816 15.4132Z" fill="#F05150"/>
<path d="M20.1923 7.43906C19.7232 8.6899 19.3882 9.94075 19.1648 11.1916C19.8349 10.8342 20.5274 10.5215 21.2422 10.2535L20.1923 7.43906Z" fill="#F05150"/>
<path d="M22.3366 13.0455C22.0909 14.207 21.9792 15.3685 21.9792 16.4854C22.4483 16.2397 22.9174 16.0386 23.4088 15.8376L22.3366 13.0455Z" fill="#F05150"/>
<path d="M25.7552 24.7266C25.0628 23.9895 24.2586 23.3418 23.3875 22.7834C23.8342 23.7215 24.3926 24.5926 25.0404 25.3744C25.2415 25.1287 25.5095 24.9053 25.7552 24.7266Z" fill="#F05150"/>
<path d="M26.6034 24.2799C26.112 23.4088 25.4865 22.56 24.7717 21.8229C24.9951 22.8504 25.3302 23.8108 25.7546 24.7266C26.0226 24.5479 26.313 24.3916 26.6034 24.2799Z" fill="#F05150"/>
<path d="M24.7712 21.8235C24.0564 21.0641 23.2523 20.394 22.3364 19.7909C22.5821 20.8407 22.9172 21.8459 23.3863 22.784C23.8107 22.4043 24.2798 22.0692 24.7712 21.8235Z" fill="#F05150"/>
<path d="M22.337 19.7906C21.4435 19.1875 20.4383 18.6961 19.3884 18.294C19.6565 19.3885 20.0362 20.4383 20.5276 21.3988C21.0637 20.7734 21.6892 20.2373 22.337 19.7906Z" fill="#F05150"/>
<path d="M24.4589 18.6737C23.7218 17.8696 22.8953 17.1548 21.9795 16.5071C21.9795 17.6462 22.1135 18.7407 22.3369 19.7906C23.007 19.3215 23.7218 18.9418 24.4589 18.6737Z" fill="#F05150"/>
<path d="M22.7844 23.387C22.9631 23.1636 23.1865 22.9626 23.3875 22.7839C22.5164 22.2255 21.5558 21.7564 20.5283 21.399L22.7844 23.387Z" fill="#F05150"/>
<path d="M24.4584 18.6741C24.436 19.7462 24.5477 20.8184 24.7711 21.8235C25.0168 21.6895 25.2625 21.5778 25.5306 21.4885L24.4584 18.6741Z" fill="#F05150"/>
<path d="M28.0104 2.99373C27.0052 1.98858 25.8883 1.05045 24.6374 0.20166C23.6322 1.34082 22.7611 2.50232 22.0239 3.73083C23.9673 3.23943 26 2.99373 28.0104 2.99373Z" fill="#F05150"/>
<path d="M19.1432 4.62431C20.0814 4.26693 21.0419 3.97655 22.0248 3.73085C20.8186 2.99374 19.4783 2.34598 18.071 1.80991L19.1432 4.62431Z" fill="#F05150"/>
<path d="M31.3835 0.20166C30.1549 1.05045 29.0157 2.01092 28.0105 2.99373C29.0157 2.99373 30.0209 3.06074 31.0261 3.17242L31.3835 0.20166Z" fill="#F05150"/>
<path d="M28.0118 15.0328C27.4757 14.0276 26.8279 13.0671 26.0684 12.1513C25.5546 13.2235 25.1526 14.318 24.8845 15.4125C25.8897 15.1444 26.9396 15.0328 28.0118 15.0328Z" fill="#F05150"/>
<path d="M26.0685 12.1296C25.309 11.2138 24.4379 10.3427 23.455 9.56094C22.9636 10.7224 22.5838 11.8839 22.3381 13.0454C23.5444 12.5987 24.7953 12.286 26.0685 12.1296Z" fill="#F05150"/>
<path d="M29.9553 12.1296C29.4416 11.0575 28.7938 10.0077 28.012 9.00253C27.2525 10.0077 26.6047 11.0575 26.0686 12.1296C27.3418 11.9733 28.6598 11.9733 29.9553 12.1296Z" fill="#F05150"/>
<path d="M28.0112 9.00227C27.2517 7.99712 26.3582 7.03665 25.353 6.16553C24.5936 7.26002 23.9681 8.39918 23.4543 9.56068C24.9286 9.2033 26.4699 9.02461 28.0112 9.00227Z" fill="#F05150"/>
<path d="M25.3529 6.16552C24.3478 5.27206 23.2309 4.4456 22.0247 3.73083C21.2875 4.93701 20.6844 6.18786 20.2153 7.4387C21.8683 6.81328 23.5883 6.38888 25.3529 6.16552Z" fill="#F05150"/>
<path d="M30.6693 6.16553C29.9099 5.07104 29.0164 3.99889 28.0112 2.99374C27.006 3.99889 26.1125 5.04871 25.353 6.16553C27.1177 5.9645 28.9047 5.9645 30.6693 6.16553Z" fill="#F05150"/>
<path d="M23.4097 15.8596C23.9011 15.6809 24.3926 15.5246 24.9063 15.3905C24.1692 14.5417 23.3204 13.76 22.3599 13.0452L23.4097 15.8596Z" fill="#F05150"/>
<path d="M21.2653 10.2308C21.9801 9.96275 22.7172 9.73939 23.4544 9.56069C22.4715 8.77891 21.377 8.06414 20.1931 7.43872L21.2653 10.2308Z" fill="#F05150"/>
<path d="M30.6699 6.16562C29.6647 7.05908 28.7935 8.01955 28.0117 9.00236C28.7712 9.00236 29.553 9.04703 30.3125 9.13638L30.6699 6.16562Z" fill="#F05150"/>
<path d="M29.9551 12.1291C29.1956 13.0449 28.5478 14.0277 28.0117 15.0105C28.5478 15.0105 29.0616 15.0329 29.5977 15.0999L29.9551 12.1291Z" fill="#F05150"/>
<path d="M27.4968 24.0572C27.2288 23.0744 26.8267 22.1362 26.3129 21.2204C26.2906 22.2479 26.3799 23.2754 26.581 24.2805C26.8937 24.1689 27.1841 24.1018 27.4968 24.0572Z" fill="#F05150"/>
<path d="M28.5026 24.0572C28.4579 23.052 28.3016 22.0246 27.9889 21.0194C27.6985 22.0246 27.5198 23.0297 27.4751 24.0572C27.8102 24.0348 28.1899 24.0348 28.5026 24.0572Z" fill="#F05150"/>
<path d="M28.0106 21.0417C27.7202 20.0366 27.3182 19.0538 26.7821 18.1156C26.4917 19.1654 26.3577 20.2153 26.313 21.2427C26.8491 21.1087 27.4075 21.0417 28.0106 21.0417Z" fill="#F05150"/>
<path d="M26.7821 18.0933C26.2683 17.1552 25.6205 16.2394 24.8834 15.3906C24.6153 16.4851 24.4813 17.5796 24.459 18.6517C25.2185 18.3837 25.9779 18.205 26.7821 18.0933Z" fill="#F05150"/>
<path d="M29.2164 18.0933C28.926 17.0435 28.5239 16.016 27.9878 15.0109C27.4517 16.016 27.0497 17.0435 26.7593 18.0933C27.5858 18.004 28.4346 18.004 29.2164 18.0933Z" fill="#F05150"/>
<path d="M25.5312 21.4661C25.7992 21.3768 26.0449 21.2874 26.313 21.2204C25.7992 20.3046 25.1961 19.4558 24.459 18.6517L25.5312 21.4661Z" fill="#F05150"/>
<path d="M29.2168 18.0933C28.7031 19.0314 28.301 20.0142 27.9883 21.0194C28.2787 21.0194 28.5691 21.0417 28.8594 21.0641L29.2168 18.0933Z" fill="#F05150"/>
<path d="M39.626 5.85273C39.2016 4.4902 38.6431 3.15001 37.9283 1.80981C36.5211 2.34589 35.2032 2.99365 33.9746 3.73076C35.9403 4.19983 37.839 4.91459 39.626 5.85273Z" fill="#F05150"/>
<path d="M31.0266 3.19476C32.0318 3.30644 33.0146 3.48513 33.9975 3.73083C33.2604 2.52466 32.3892 1.34082 31.384 0.20166L31.0266 3.19476Z" fill="#F05150"/>
<path d="M43.9155 4.95935C42.4189 5.13804 40.9893 5.45075 39.6267 5.87515C40.5202 6.34422 41.3914 6.85796 42.2179 7.43871L43.9155 4.95935Z" fill="#F05150"/>
<path d="M34.0196 16.5076C34.0196 15.3684 33.9079 14.2292 33.6622 13.0677C32.7017 13.7825 31.8529 14.5643 31.1157 15.4131C32.1209 15.6365 33.1038 16.0162 34.0196 16.5076Z" fill="#F05150"/>
<path d="M33.684 13.045C33.4383 11.8835 33.0585 10.722 32.5671 9.56055C31.5842 10.3423 30.7131 11.2135 29.9536 12.1293C31.2268 12.2856 32.4777 12.5983 33.684 13.045Z" fill="#F05150"/>
<path d="M37.0794 14.832C37.1241 13.6481 37.0347 12.4196 36.8337 11.1688C35.6945 11.7049 34.6446 12.3303 33.6841 13.0451C34.868 13.5141 36.0295 14.1172 37.0794 14.832Z" fill="#F05150"/>
<path d="M36.8335 11.1911C36.6324 9.94026 36.275 8.68941 35.8059 7.43857C34.6221 8.06399 33.5275 8.77876 32.5447 9.56054C34.0413 9.91793 35.4709 10.4763 36.8335 11.1911Z" fill="#F05150"/>
<path d="M35.8056 7.43858C35.3365 6.18773 34.7334 4.93689 33.9962 3.73071C32.79 4.46782 31.6732 5.29427 30.668 6.1654C32.4103 6.38876 34.1526 6.81316 35.8056 7.43858Z" fill="#F05150"/>
<path d="M40.4965 9.89561C40.3402 8.57775 40.0498 7.21522 39.6254 5.85269C38.2628 6.27709 36.9895 6.79083 35.8057 7.41625C37.4586 8.06401 39.0446 8.89046 40.4965 9.89561Z" fill="#F05150"/>
<path d="M29.574 15.1223C30.0877 15.1894 30.6015 15.2787 31.1153 15.4127C30.8472 14.3182 30.4675 13.2237 29.9314 12.1516L29.574 15.1223Z" fill="#F05150"/>
<path d="M30.3105 9.15826C31.07 9.2476 31.8295 9.38162 32.5666 9.56032C32.0752 8.39882 31.4274 7.25965 30.6679 6.16516L30.3105 9.15826Z" fill="#F05150"/>
<path d="M40.4971 9.8956C39.2015 10.2083 37.973 10.655 36.8337 11.1688C37.5039 11.5262 38.174 11.9282 38.7994 12.3526L40.4971 9.8956Z" fill="#F05150"/>
<path d="M37.0793 14.832C35.9847 15.2787 34.9572 15.8371 34.019 16.4849C34.4881 16.7306 34.9349 16.9986 35.3593 17.289L37.0793 14.832Z" fill="#F05150"/>
<path d="M29.4185 24.2804C29.6196 23.2976 29.7312 22.2702 29.6866 21.2203C29.1728 22.1361 28.7931 23.0743 28.5027 24.0571C28.8377 24.1018 29.1281 24.1688 29.4185 24.2804Z" fill="#F05150"/>
<path d="M30.2451 24.7272C30.6918 23.8114 31.0045 22.8286 31.2279 21.8234C30.5131 22.5829 29.91 23.4093 29.3962 24.2804C29.709 24.3921 29.977 24.5485 30.2451 24.7272Z" fill="#F05150"/>
<path d="M31.2283 21.823C31.4517 20.8179 31.5634 19.7457 31.541 18.6736C30.8039 19.4777 30.2008 20.3265 29.687 21.2423C30.2231 21.354 30.7369 21.555 31.2283 21.823Z" fill="#F05150"/>
<path d="M31.5401 18.674C31.5178 17.6018 31.3838 16.5073 31.1157 15.4128C30.3786 16.2616 29.7308 17.1774 29.217 18.1156C30.0212 18.2049 30.803 18.3836 31.5401 18.674Z" fill="#F05150"/>
<path d="M33.6616 19.7909C33.9073 18.7411 34.019 17.6466 34.019 16.5074C33.0808 17.1552 32.2543 17.87 31.5396 18.6741C32.2767 18.9421 32.9915 19.3219 33.6616 19.7909Z" fill="#F05150"/>
<path d="M28.8601 21.0863C29.1505 21.1087 29.4185 21.1757 29.6866 21.2427C29.6643 20.2152 29.5079 19.1431 29.2175 18.1156L28.8601 21.0863Z" fill="#F05150"/>
<path d="M33.6633 19.7904C32.7698 20.3935 31.9433 21.0636 31.2285 21.823C31.4742 21.9571 31.7199 22.0911 31.9433 22.2698L33.6633 19.7904Z" fill="#F05150"/>
<path d="M48.5839 13.8046C48.8296 12.3974 48.9636 10.9455 48.9636 9.42665C47.467 9.24796 45.9927 9.20328 44.5854 9.29263C46.0821 10.6328 47.4446 12.1517 48.5839 13.8046Z" fill="#F05150"/>
<path d="M42.217 7.41661C43.0435 7.99736 43.8477 8.62279 44.5848 9.27055C44.4955 7.86334 44.2721 6.41147 43.9147 4.93726L42.217 7.41661Z" fill="#F05150"/>
<path d="M52.8065 14.9882C51.3992 14.4521 49.9696 14.0724 48.5847 13.8043C49.1655 14.6308 49.6793 15.5019 50.1483 16.3954L52.8065 14.9882Z" fill="#F05150"/>
<path d="M38.6886 20.6396C39.2247 19.6344 39.6491 18.5623 39.9618 17.4008C38.7779 17.5795 37.6611 17.8699 36.5889 18.2719C37.393 18.9867 38.1078 19.7685 38.6886 20.6396Z" fill="#F05150"/>
<path d="M39.9848 17.4007C40.2975 16.2615 40.5209 15.033 40.6103 13.7821C39.3817 14.0278 38.1978 14.3852 37.1033 14.832C38.1531 15.5691 39.1136 16.4402 39.9848 17.4007Z" fill="#F05150"/>
<path d="M42.1739 20.5724C42.7547 19.545 43.2461 18.4058 43.6482 17.222C42.3973 17.155 41.1687 17.222 39.9849 17.4007C40.8337 18.3611 41.5708 19.4333 42.1739 20.5724Z" fill="#F05150"/>
<path d="M43.648 17.2222C44.0277 16.016 44.3181 14.7428 44.4745 13.425C43.1342 13.425 41.8387 13.559 40.6101 13.7823C41.7493 14.8098 42.7768 15.949 43.648 17.2222Z" fill="#F05150"/>
<path d="M44.4734 13.4249C44.6297 12.107 44.6744 10.7222 44.5851 9.29263C43.1778 9.38198 41.7929 9.58301 40.4973 9.89572C41.9492 10.9009 43.2895 12.0847 44.4734 13.4249Z" fill="#F05150"/>
<path d="M47.4897 17.7806C47.9588 16.5297 48.3385 15.1895 48.5842 13.8047C47.177 13.5366 45.8144 13.425 44.4741 13.425C45.6357 14.7428 46.6632 16.217 47.4897 17.7806Z" fill="#F05150"/>
<path d="M35.3826 17.3115C35.807 17.6018 36.2314 17.9369 36.6111 18.2943C36.8792 17.1998 37.0355 16.0383 37.0802 14.8544L35.3826 17.3115Z" fill="#F05150"/>
<path d="M38.8003 12.3751C39.4257 12.7995 40.0289 13.2909 40.6096 13.7823C40.699 12.5314 40.6766 11.2136 40.5203 9.89572L38.8003 12.3751Z" fill="#F05150"/>
<path d="M47.4895 17.7805C46.1939 17.4678 44.8984 17.2668 43.6475 17.2221C44.0719 17.8475 44.4739 18.5176 44.8313 19.1877L47.4895 17.7805Z" fill="#F05150"/>
<path d="M42.174 20.5725C40.9901 20.4608 39.8285 20.4832 38.7117 20.6395C39.0021 21.0639 39.2701 21.5107 39.5158 21.9797L42.174 20.5725Z" fill="#F05150"/>
<path d="M30.9826 25.3754C31.6304 24.5936 32.1665 23.7225 32.6356 22.7843C31.7644 23.3427 30.9603 23.9905 30.2678 24.7276C30.5135 24.9063 30.7592 25.1297 30.9826 25.3754Z" fill="#F05150"/>
<path d="M31.5405 26.1795C32.3446 25.5764 33.1041 24.8616 33.7742 24.0575C32.7914 24.3926 31.8532 24.8393 31.0044 25.3754C31.2054 25.6211 31.3841 25.8891 31.5405 26.1795Z" fill="#F05150"/>
<path d="M33.7518 24.0571C34.4219 23.253 35.0027 22.3595 35.4717 21.399C34.4442 21.7564 33.506 22.2255 32.6125 22.7839C33.0593 23.1636 33.439 23.588 33.7518 24.0571Z" fill="#F05150"/>
<path d="M35.4729 21.3995C35.9643 20.439 36.3441 19.3892 36.6121 18.2947C35.5623 18.6967 34.5571 19.2105 33.6636 19.7912C34.3337 20.238 34.9368 20.774 35.4729 21.3995Z" fill="#F05150"/>
<path d="M36.8579 23.3874C37.5504 22.561 38.1759 21.6452 38.712 20.64C37.5951 20.774 36.5005 21.0421 35.4954 21.3995C36.0091 22.0025 36.4782 22.6726 36.8579 23.3874Z" fill="#F05150"/>
<path d="M31.9648 22.2479C32.1882 22.4043 32.4116 22.583 32.635 22.784C33.0817 21.8459 33.4391 20.8407 33.6848 19.7909L31.9648 22.2479Z" fill="#F05150"/>
<path d="M36.8573 23.3874C35.7851 23.4991 34.7353 23.7225 33.7524 24.0575C33.9088 24.2809 34.0652 24.5266 34.1992 24.7723L36.8573 23.3874Z" fill="#F05150"/>
<path d="M52.8274 24.9954C53.6986 23.8785 54.5027 22.65 55.1952 21.3098C53.9443 20.461 52.6711 19.7239 51.3755 19.1432C52.0903 21.0195 52.5817 22.9851 52.8274 24.9954Z" fill="#F05150"/>
<path d="M50.1484 16.3736C50.6175 17.2671 51.0419 18.1829 51.3993 19.121C51.9801 17.8255 52.4492 16.4406 52.8289 14.9664L50.1484 16.3736Z" fill="#F05150"/>
<path d="M55.9999 28.0107C54.9947 26.8938 53.9225 25.8664 52.8057 24.9952C52.9174 26.0004 52.9844 27.0055 52.9844 28.0107H55.9999Z" fill="#F05150"/>
<path d="M40.9002 26.4245C41.8384 25.7768 42.7096 25.0397 43.536 24.1685C42.4192 23.7888 41.28 23.5208 40.1631 23.4091C40.5205 24.3696 40.7662 25.3747 40.9002 26.4245Z" fill="#F05150"/>
<path d="M43.5354 24.1689C44.3619 23.2978 45.0991 22.3373 45.7692 21.2652C44.563 20.9078 43.3567 20.6844 42.1729 20.5728C42.776 21.7119 43.2227 22.9181 43.5354 24.1689Z" fill="#F05150"/>
<path d="M43.9823 28.0108C44.9875 27.3631 45.948 26.6036 46.8415 25.7102C45.7469 25.0624 44.6301 24.5487 43.5132 24.1689C43.8259 25.4198 43.9823 26.693 43.9823 28.0108Z" fill="#F05150"/>
<path d="M46.8648 25.7099C47.7583 24.8387 48.6071 23.8336 49.3666 22.7391C48.1827 22.1137 46.9765 21.6223 45.7703 21.2649C46.3064 22.6944 46.6861 24.191 46.8648 25.7099Z" fill="#F05150"/>
<path d="M49.3662 22.739C50.1257 21.6445 50.8181 20.4383 51.3766 19.1428C50.081 18.5621 48.7854 18.1153 47.4675 17.7803C48.3164 19.3438 48.9418 21.0191 49.3662 22.739Z" fill="#F05150"/>
<path d="M49.9918 28.0104C50.997 27.1169 51.9351 26.1118 52.8063 24.995C51.6894 24.1238 50.5279 23.3644 49.344 22.739C49.7907 24.4589 49.9918 26.2235 49.9918 28.0104Z" fill="#F05150"/>
<path d="M39.5154 21.9795C39.7611 22.4486 39.9621 22.9177 40.1632 23.4091C40.9226 22.5603 41.5928 21.6221 42.1735 20.5947L39.5154 21.9795Z" fill="#F05150"/>
<path d="M44.8318 19.1875C45.1892 19.8576 45.5019 20.55 45.77 21.2648C46.4401 20.1926 47.0209 19.0311 47.4899 17.7803L44.8318 19.1875Z" fill="#F05150"/>
<path d="M49.9916 28.0104C48.9864 27.117 47.9366 26.3575 46.842 25.7097C46.9314 26.4692 46.9761 27.2286 46.9761 28.0104H49.9916Z" fill="#F05150"/>
<path d="M43.9823 28.0102C42.9772 27.3625 41.9496 26.8264 40.8774 26.4243C40.9445 26.9381 40.9668 27.4741 40.9668 28.0102H43.9823Z" fill="#F05150"/>
<path d="M31.8537 27.0276C32.7919 26.6479 33.6854 26.1342 34.5342 25.5311C33.5067 25.6204 32.5015 25.8438 31.541 26.1788C31.675 26.4469 31.7867 26.7372 31.8537 27.0276Z" fill="#F05150"/>
<path d="M31.9654 28.0104C32.9706 27.8317 33.9535 27.5414 34.914 27.1393C33.8865 26.9829 32.8589 26.9383 31.8538 27.0276C31.9431 27.3403 31.9654 27.653 31.9654 28.0104Z" fill="#F05150"/>
<path d="M34.9355 27.1394C35.896 26.7373 36.8342 26.2236 37.7054 25.5982C36.6332 25.4418 35.5833 25.4195 34.5334 25.5312C34.7345 26.0449 34.8685 26.581 34.9355 27.1394Z" fill="#F05150"/>
<path d="M37.7062 25.5981C38.5774 24.9727 39.4039 24.2356 40.1634 23.3868C39.0465 23.2527 37.9296 23.2527 36.8574 23.3644C37.2148 24.0792 37.5052 24.8386 37.7062 25.5981Z" fill="#F05150"/>
<path d="M37.975 28.0104C38.9801 27.586 39.963 27.0723 40.8788 26.4245C39.829 26.0225 38.7568 25.7544 37.6846 25.5981C37.8856 26.3799 37.975 27.184 37.975 28.0104Z" fill="#F05150"/>
<path d="M34.1985 24.7715C34.3325 25.0172 34.4442 25.2629 34.5335 25.531C35.3824 24.9279 36.1418 24.1908 36.8566 23.3867L34.1985 24.7715Z" fill="#F05150"/>
<path d="M37.9748 28.0107C36.9696 27.5863 35.9421 27.3183 34.9146 27.1396C34.9592 27.43 34.9592 27.698 34.9592 28.0107H37.9748Z" fill="#F05150"/>
</g>
<defs>
<clipPath id="clip0_895_2830">
<rect width="56" height="56" fill="white"/>
</clipPath>
</defs>
</svg>
